<svg width="550" height="121" viewBox="0 0 550 121" fill="none" xmlns="http://www.w3.org/2000/svg">
<path d="M22.26 77.08V81.6H14.82V105H9.22V81.6H1.78V77.08H22.26ZM24.9059 93.84C24.9059 91.6 25.3459 89.6133 26.2259 87.88C27.1326 86.1467 28.3459 84.8133 29.8659 83.88C31.4126 82.9467 33.1326 82.48 35.0259 82.48C36.6793 82.48 38.1193 82.8133 39.3459 83.48C40.5993 84.1467 41.5993 84.9867 42.3459 86V82.84H47.9859V105H42.3459V101.76C41.6259 102.8 40.6259 103.667 39.3459 104.36C38.0926 105.027 36.6393 105.36 34.9859 105.36C33.1193 105.36 31.4126 104.88 29.8659 103.92C28.3459 102.96 27.1326 101.613 26.2259 99.88C25.3459 98.12 24.9059 96.1067 24.9059 93.84ZM42.3459 93.92C42.3459 92.56 42.0793 91.4 41.5459 90.44C41.0126 89.4533 40.2926 88.7067 39.3859 88.2C38.4793 87.6667 37.5059 87.4 36.4659 87.4C35.4259 87.4 34.4659 87.6533 33.5859 88.16C32.7059 88.6667 31.9859 89.4133 31.4259 90.4C30.8926 91.36 30.6259 92.5067 30.6259 93.84C30.6259 95.1733 30.8926 96.3467 31.4259 97.36C31.9859 98.3467 32.7059 99.1067 33.5859 99.64C34.4926 100.173 35.4526 100.44 36.4659 100.44C37.5059 100.44 38.4793 100.187 39.3859 99.68C40.2926 99.1467 41.0126 98.4 41.5459 97.44C42.0793 96.4533 42.3459 95.28 42.3459 93.92ZM74.3753 82.84V105H68.7353V102.2C68.0153 103.16 67.0686 103.92 65.8953 104.48C64.7486 105.013 63.4953 105.28 62.1353 105.28C60.402 105.28 58.8686 104.92 57.5353 104.2C56.202 103.453 55.1486 102.373 54.3753 100.96C53.6286 99.52 53.2553 97.8133 53.2553 95.84V82.84H58.8553V95.04C58.8553 96.8 59.2953 98.16 60.1753 99.12C61.0553 100.053 62.2553 100.52 63.7753 100.52C65.322 100.52 66.5353 100.053 67.4153 99.12C68.2953 98.16 68.7353 96.8 68.7353 95.04V82.84H74.3753ZM93.0206 105L85.5006 95.56V105H79.9006V75.4H85.5006V92.24L92.9406 82.84H100.221L90.4606 93.96L100.301 105H93.0206ZM101.82 93.84C101.82 91.6 102.26 89.6133 103.14 87.88C104.047 86.1467 105.26 84.8133 106.78 83.88C108.327 82.9467 110.047 82.48 111.94 82.48C113.593 82.48 115.033 82.8133 116.26 83.48C117.513 84.1467 118.513 84.9867 119.26 86V82.84H124.9V105H119.26V101.76C118.54 102.8 117.54 103.667 116.26 104.36C115.007 105.027 113.553 105.36 111.9 105.36C110.033 105.36 108.327 104.88 106.78 103.92C105.26 102.96 104.047 101.613 103.14 99.88C102.26 98.12 101.82 96.1067 101.82 93.84ZM119.26 93.92C119.26 92.56 118.993 91.4 118.46 90.44C117.927 89.4533 117.207 88.7067 116.3 88.2C115.393 87.6667 114.42 87.4 113.38 87.4C112.34 87.4 111.38 87.6533 110.5 88.16C109.62 88.6667 108.9 89.4133 108.34 90.4C107.807 91.36 107.54 92.5067 107.54 93.84C107.54 95.1733 107.807 96.3467 108.34 97.36C108.9 98.3467 109.62 99.1067 110.5 99.64C111.407 100.173 112.367 100.44 113.38 100.44C114.42 100.44 115.393 100.187 116.3 99.68C117.207 99.1467 117.927 98.4 118.46 97.44C118.993 96.4533 119.26 95.28 119.26 93.92ZM142.849 82.52C144.529 82.52 146.023 82.8933 147.329 83.64C148.636 84.36 149.649 85.44 150.369 86.88C151.116 88.2933 151.489 90 151.489 92V105H145.889V92.76C145.889 91 145.449 89.6533 144.569 88.72C143.689 87.76 142.489 87.28 140.969 87.28C139.423 87.28 138.196 87.76 137.289 88.72C136.409 89.6533 135.969 91 135.969 92.76V105H130.369V75.4H135.969V85.6C136.689 84.64 137.649 83.8933 138.849 83.36C140.049 82.8 141.383 82.52 142.849 82.52ZM182.106 105L171.946 92.56V105H166.346V77.08H171.946V89.6L182.106 77.08H188.866L177.346 90.92L189.186 105H182.106ZM191.429 93.84C191.429 91.6 191.869 89.6133 192.749 87.88C193.656 86.1467 194.869 84.8133 196.389 83.88C197.936 82.9467 199.656 82.48 201.549 82.48C203.203 82.48 204.643 82.8133 205.869 83.48C207.123 84.1467 208.123 84.9867 208.869 86V82.84H214.509V105H208.869V101.76C208.149 102.8 207.149 103.667 205.869 104.36C204.616 105.027 203.163 105.36 201.509 105.36C199.643 105.36 197.936 104.88 196.389 103.92C194.869 102.96 193.656 101.613 192.749 99.88C191.869 98.12 191.429 96.1067 191.429 93.84ZM208.869 93.92C208.869 92.56 208.603 91.4 208.069 90.44C207.536 89.4533 206.816 88.7067 205.909 88.2C205.003 87.6667 204.029 87.4 202.989 87.4C201.949 87.4 200.989 87.6533 200.109 88.16C199.229 88.6667 198.509 89.4133 197.949 90.4C197.416 91.36 197.149 92.5067 197.149 93.84C197.149 95.1733 197.416 96.3467 197.949 97.36C198.509 98.3467 199.229 99.1067 200.109 99.64C201.016 100.173 201.976 100.44 202.989 100.44C204.029 100.44 205.003 100.187 205.909 99.68C206.816 99.1467 207.536 98.4 208.069 97.44C208.603 96.4533 208.869 95.28 208.869 93.92ZM247.499 82.52C250.219 82.52 252.405 83.36 254.059 85.04C255.739 86.6933 256.579 89.0133 256.579 92V105H250.979V92.76C250.979 91.0267 250.539 89.7067 249.659 88.8C248.779 87.8667 247.579 87.4 246.059 87.4C244.539 87.4 243.325 87.8667 242.419 88.8C241.539 89.7067 241.099 91.0267 241.099 92.76V105H235.499V92.76C235.499 91.0267 235.059 89.7067 234.179 88.8C233.299 87.8667 232.099 87.4 230.579 87.4C229.032 87.4 227.805 87.8667 226.899 88.8C226.019 89.7067 225.579 91.0267 225.579 92.76V105H219.979V82.84H225.579V85.52C226.299 84.5867 227.219 83.8533 228.339 83.32C229.485 82.7867 230.739 82.52 232.099 82.52C233.832 82.52 235.379 82.8933 236.739 83.64C238.099 84.36 239.152 85.4 239.899 86.76C240.619 85.48 241.659 84.4533 243.019 83.68C244.405 82.9067 245.899 82.52 247.499 82.52ZM282.813 82.84V105H277.173V102.2C276.453 103.16 275.506 103.92 274.333 104.48C273.186 105.013 271.933 105.28 270.573 105.28C268.839 105.28 267.306 104.92 265.973 104.2C264.639 103.453 263.586 102.373 262.813 100.96C262.066 99.52 261.693 97.8133 261.693 95.84V82.84H267.293V95.04C267.293 96.8 267.733 98.16 268.613 99.12C269.493 100.053 270.693 100.52 272.213 100.52C273.759 100.52 274.973 100.053 275.853 99.12C276.733 98.16 277.173 96.8 277.173 95.04V82.84H282.813ZM296.138 76.12C298.911 76.12 301.138 76.88 302.818 78.4C304.525 79.8933 305.378 81.96 305.378 84.6C305.378 87.2133 304.538 89.2133 302.858 90.6C301.178 91.96 298.951 92.64 296.178 92.64L296.018 95.72H291.098L290.898 88.92H292.698C295.018 88.92 296.805 88.6133 298.058 88C299.311 87.3867 299.938 86.2667 299.938 84.64C299.938 83.4667 299.591 82.5333 298.898 81.84C298.231 81.1467 297.311 80.8 296.138 80.8C294.911 80.8 293.951 81.1333 293.258 81.8C292.591 82.4667 292.258 83.3867 292.258 84.56H286.978C286.951 82.9333 287.298 81.48 288.018 80.2C288.738 78.92 289.791 77.92 291.178 77.2C292.591 76.48 294.245 76.12 296.138 76.12ZM293.538 105.28C292.525 105.28 291.685 104.973 291.018 104.36C290.378 103.72 290.058 102.933 290.058 102C290.058 101.067 290.378 100.293 291.018 99.68C291.685 99.04 292.525 98.72 293.538 98.72C294.525 98.72 295.338 99.04 295.978 99.68C296.618 100.293 296.938 101.067 296.938 102C296.938 102.933 296.618 103.72 295.978 104.36C295.338 104.973 294.525 105.28 293.538 105.28Z" fill="black"/>
<path d="M414.851 35.5L415.287 35.2544L414.851 35.5ZM390.475 55.4737L390.356 55.9593L390.475 55.4737ZM549.5 1L543.729 0.815697L546.455 5.9053L549.5 1ZM336.579 93.4937C336.899 93.4422 337.222 93.3895 337.547 93.3355L337.383 92.349C337.06 92.4027 336.739 92.4551 336.421 92.5063L336.579 93.4937ZM339.527 92.9974C340.17 92.8845 340.821 92.7671 341.481 92.6451L341.299 91.6618C340.642 91.7832 339.994 91.9001 339.354 92.0125L339.527 92.9974ZM343.458 92.2705C344.1 92.1459 344.75 92.0172 345.405 91.8844L345.206 90.9043C344.554 91.0366 343.907 91.1647 343.267 91.2888L343.458 92.2705ZM347.368 91.4779C348.012 91.3417 348.662 91.2017 349.315 91.0579L349.101 90.0812C348.449 90.2244 347.803 90.3639 347.161 90.4995L347.368 91.4779ZM351.268 90.6202C351.912 90.4729 352.56 90.3221 353.211 90.1677L352.981 89.1946C352.332 89.3485 351.686 89.4987 351.045 89.6453L351.268 90.6202ZM355.154 89.6988C355.797 89.5408 356.443 89.3793 357.092 89.2143L356.845 88.2452C356.2 88.4095 355.556 88.5703 354.916 88.7277L355.154 89.6988ZM359.026 88.7137C359.667 88.5449 360.311 88.3727 360.955 88.1971L360.693 87.2322C360.051 87.407 359.41 87.5785 358.771 87.7467L359.026 88.7137ZM362.881 87.6639C363.52 87.4839 364.161 87.3006 364.801 87.1141L364.522 86.154C363.884 86.3397 363.247 86.5221 362.61 86.7013L362.881 87.6639ZM366.718 86.547C367.355 86.3555 367.991 86.1607 368.628 85.9627L368.331 85.0079C367.697 85.2049 367.063 85.3987 366.43 85.5894L366.718 86.547ZM370.534 85.3601C371.168 85.1563 371.801 84.9494 372.433 84.7392L372.117 83.7903C371.488 83.9994 370.858 84.2053 370.228 84.4081L370.534 85.3601ZM374.326 84.0989C374.957 83.8822 375.586 83.6622 376.213 83.439L375.878 82.4968C375.254 82.7188 374.628 82.9376 374.001 83.1533L374.326 84.0989ZM378.092 82.7585C378.719 82.5276 379.343 82.2935 379.965 82.0561L379.608 81.1219C378.99 81.3578 378.369 81.5906 377.747 81.8201L378.092 82.7585ZM381.827 81.3321C382.449 81.0859 383.068 80.8364 383.684 80.5836L383.304 79.6586C382.692 79.9098 382.077 80.1577 381.459 80.4023L381.827 81.3321ZM385.527 79.812C386.143 79.549 386.755 79.2825 387.363 79.0126L386.958 78.0986C386.354 78.3665 385.746 78.6311 385.134 78.8923L385.527 79.812ZM389.183 78.1882C389.793 77.9065 390.397 77.6213 390.996 77.3325L390.562 76.4317C389.968 76.7181 389.368 77.001 388.764 77.2805L389.183 78.1882ZM392.79 76.4487C393.39 76.1462 393.984 75.84 394.572 75.5301L394.105 74.6456C393.523 74.9525 392.935 75.2559 392.34 75.5556L392.79 76.4487ZM396.333 74.5786C396.922 74.2529 397.503 73.9232 398.076 73.5896L397.573 72.7253C397.007 73.0552 396.432 73.3813 395.849 73.7036L396.333 74.5786ZM399.799 72.5597C400.372 72.2078 400.936 71.8517 401.49 71.4914L400.945 70.6529C400.399 71.0084 399.842 71.36 399.276 71.7075L399.799 72.5597ZM403.164 70.3698C403.716 69.9884 404.258 69.6024 404.787 69.2119L404.194 68.4071C403.673 68.7913 403.14 69.1713 402.596 69.5471L403.164 70.3698ZM406.397 67.9825C406.927 67.5627 407.443 67.1378 407.946 66.7079L407.296 65.948C406.803 66.3694 406.296 66.7863 405.776 67.1986L406.397 67.9825ZM409.449 65.3667C409.948 64.9017 410.431 64.4309 410.896 63.9543L410.18 63.2558C409.727 63.7206 409.255 64.1803 408.767 64.6351L409.449 65.3667ZM412.261 62.4812C412.713 61.9663 413.144 61.4449 413.554 60.917L412.764 60.3036C412.367 60.815 411.948 61.321 411.509 61.8216L412.261 62.4812ZM414.745 59.2751C415.126 58.7098 415.482 58.1374 415.813 57.5577L414.944 57.0624C414.626 57.6194 414.283 58.1707 413.916 58.7161L414.745 59.2751ZM416.748 55.7495C417.036 55.1285 417.295 54.4997 417.522 53.8631L416.581 53.5266C416.364 54.1335 416.117 54.7341 415.841 55.3283L416.748 55.7495ZM418.114 51.9135C418.279 51.2528 418.411 50.5843 418.508 49.9081L417.518 49.7663C417.426 50.4079 417.301 51.0428 417.144 51.6708L418.114 51.9135ZM418.692 47.8751C418.717 47.2032 418.708 46.5244 418.664 45.8389L417.666 45.9038C417.708 46.5553 417.717 47.1998 417.692 47.8373L418.692 47.8751ZM418.43 43.8078C418.321 43.1484 418.179 42.4832 418.004 41.8124L417.036 42.0652C417.204 42.707 417.339 43.3422 417.443 43.9707L418.43 43.8078ZM417.412 39.8835C417.19 39.2545 416.939 38.6208 416.658 37.9824L415.743 38.3855C416.014 39.0014 416.256 39.6115 416.469 40.2158L417.412 39.8835ZM415.785 36.1699C415.626 35.8657 415.46 35.5606 415.287 35.2544L414.416 35.7457C414.584 36.0428 414.744 36.3387 414.898 36.6333L415.785 36.1699ZM415.287 35.2544C415.115 34.9498 414.942 34.6502 414.769 34.3555L413.907 34.8634C414.078 35.1525 414.247 35.4466 414.416 35.7457L415.287 35.2544ZM413.715 32.6459C413.348 32.0752 412.976 31.5251 412.601 30.9953L411.785 31.5728C412.151 32.0906 412.515 32.6286 412.875 33.1875L413.715 32.6459ZM411.398 29.3775C410.976 28.8391 410.551 28.3248 410.122 27.8339L409.369 28.4916C409.786 28.9687 410.2 29.4693 410.61 29.994L411.398 29.3775ZM408.758 26.3609C408.272 25.8673 407.783 25.4021 407.291 24.9645L406.627 25.7118C407.102 26.1342 407.575 26.5841 408.045 27.0623L408.758 26.3609ZM405.758 23.6962C405.203 23.2708 404.645 22.8787 404.086 22.5186L403.545 23.3596C404.08 23.7044 404.616 24.0807 405.149 24.4897L405.758 23.6962ZM402.335 21.4985C401.726 21.1796 401.115 20.8971 400.505 20.6495L400.129 21.5762C400.709 21.8115 401.29 22.0804 401.871 22.3845L402.335 21.4985ZM398.582 19.9826C397.916 19.7904 397.253 19.6381 396.592 19.5238L396.422 20.5091C397.046 20.6172 397.674 20.7612 398.304 20.9433L398.582 19.9826ZM394.569 19.2893C393.884 19.2489 393.204 19.2482 392.533 19.2847L392.587 20.2833C393.221 20.2487 393.863 20.2494 394.51 20.2876L394.569 19.2893ZM390.509 19.5094C389.836 19.6224 389.173 19.7722 388.523 19.956L388.795 20.9183C389.411 20.7442 390.038 20.6024 390.675 20.4956L390.509 19.5094ZM386.596 20.6128C385.965 20.8652 385.349 21.1497 384.749 21.4634L385.212 22.3495C385.783 22.0511 386.369 21.7808 386.967 21.5412L386.596 20.6128ZM382.997 22.4916C382.429 22.8625 381.88 23.2602 381.352 23.6817L381.975 24.4635C382.48 24.0613 383.003 23.6821 383.544 23.3286L382.997 22.4916ZM379.825 25.019C379.336 25.4887 378.87 25.98 378.428 26.49L379.184 27.1448C379.606 26.6578 380.051 26.1887 380.518 25.7401L379.825 25.019ZM377.172 28.0825C376.776 28.6346 376.408 29.2031 376.068 29.7853L376.932 30.2887C377.256 29.734 377.607 29.1918 377.984 28.665L377.172 28.0825ZM375.132 31.5899C374.848 32.2103 374.597 32.8421 374.381 33.4821L375.328 33.8017C375.533 33.1953 375.771 32.5957 376.041 32.006L375.132 31.5899ZM373.836 35.4468C373.691 36.1149 373.585 36.7885 373.521 37.4643L374.516 37.5589C374.577 36.924 374.676 36.2898 374.813 35.6594L373.836 35.4468ZM373.457 39.5087C373.48 40.1904 373.548 40.8709 373.664 41.5465L374.649 41.3774C374.541 40.7478 374.478 40.1127 374.456 39.4751L373.457 39.5087ZM374.152 43.5375C374.359 44.181 374.614 44.8162 374.918 45.4396L375.816 45.001C375.533 44.4206 375.296 43.8297 375.104 43.2311L374.152 43.5375ZM375.944 47.2155C376.318 47.7711 376.736 48.3134 377.201 48.8399L377.951 48.1783C377.514 47.6838 377.123 47.1759 376.773 46.6569L375.944 47.2155ZM378.637 50.2835C379.125 50.7198 379.649 51.1418 380.211 51.548L380.797 50.7374C380.262 50.351 379.765 49.9507 379.304 49.5383L378.637 50.2835ZM381.909 52.6566C382.48 52.9938 383.082 53.3168 383.717 53.6246L384.153 52.7248C383.542 52.4285 382.964 52.1183 382.417 51.7955L381.909 52.6566ZM385.529 54.4252C386.138 54.6701 386.772 54.9024 387.433 55.1213L387.748 54.1722C387.106 53.9595 386.491 53.7342 385.902 53.4974L385.529 54.4252ZM389.347 55.6982C389.678 55.7883 390.014 55.8754 390.356 55.9593L390.595 54.9881C390.261 54.9062 389.933 54.8212 389.611 54.7334L389.347 55.6982ZM390.356 55.9593C390.669 56.0361 390.988 56.1082 391.311 56.1756L391.515 55.1966C391.203 55.1315 390.896 55.062 390.595 54.9881L390.356 55.9593ZM393.31 56.5246C393.948 56.6158 394.603 56.6915 395.274 56.752L395.364 55.7561C394.709 55.697 394.071 55.6233 393.451 55.5346L393.31 56.5246ZM397.294 56.887C397.939 56.9158 398.596 56.9323 399.267 56.9368L399.274 55.9368C398.615 55.9324 397.97 55.9162 397.339 55.8879L397.294 56.887ZM401.278 56.9158C401.926 56.8984 402.584 56.8709 403.252 56.8337L403.197 55.8352C402.537 55.872 401.889 55.899 401.251 55.9161L401.278 56.9158ZM405.256 56.6953C405.901 56.6425 406.555 56.5813 407.218 56.5119L407.114 55.5174C406.458 55.586 405.812 55.6465 405.175 55.6986L405.256 56.6953ZM409.219 56.2808C409.86 56.2003 410.507 56.1127 411.162 56.0182L411.019 55.0284C410.37 55.1221 409.729 55.2089 409.095 55.2887L409.219 56.2808ZM413.146 55.7141C413.787 55.6105 414.433 55.5006 415.086 55.3847L414.912 54.4001C414.264 54.5151 413.622 54.6241 412.986 54.727L413.146 55.7141ZM417.042 55.0233C417.687 54.8993 418.339 54.7697 418.995 54.6347L418.794 53.6552C418.141 53.7893 417.494 53.9181 416.853 54.0412L417.042 55.0233ZM420.923 54.2263C421.57 54.0851 422.222 53.939 422.879 53.788L422.655 52.8134C422.001 52.9636 421.353 53.1089 420.709 53.2492L420.923 54.2263ZM424.792 53.3377C425.43 53.1841 426.072 53.0261 426.718 52.8639L426.475 51.894C425.832 52.0554 425.193 52.2126 424.558 52.3655L424.792 53.3377ZM428.651 52.369C429.281 52.2047 429.915 52.0366 430.551 51.8648L430.291 50.8993C429.657 51.0704 429.026 51.2378 428.399 51.4013L428.651 52.369ZM432.471 51.3382C433.104 51.1619 433.74 50.982 434.379 50.7987L434.103 49.8375C433.466 50.0201 432.833 50.1992 432.202 50.3749L432.471 51.3382ZM436.272 50.248C436.906 50.0613 437.543 49.8713 438.182 49.6782L437.893 48.7209C437.256 48.9134 436.622 49.1027 435.99 49.2888L436.272 50.248ZM440.072 49.1005C440.698 48.9068 441.327 48.7103 441.957 48.511L441.656 47.5575C441.027 47.7562 440.401 47.9521 439.776 48.1451L440.072 49.1005ZM443.855 47.9049C444.479 47.7037 445.104 47.5 445.732 47.2938L445.419 46.3438C444.794 46.5495 444.17 46.7526 443.548 46.9532L443.855 47.9049ZM447.608 46.6712C448.235 46.4612 448.864 46.2488 449.494 46.0341L449.172 45.0875C448.543 45.3017 447.916 45.5135 447.29 45.7229L447.608 46.6712ZM451.361 45.3932C451.982 45.1783 452.604 44.9612 453.228 44.742L452.896 43.7986C452.274 44.0172 451.653 44.2338 451.034 44.4482L451.361 45.3932ZM455.102 44.0782C455.72 43.8576 456.34 43.635 456.961 43.4104L456.621 42.4701C456.001 42.6941 455.383 42.9162 454.766 43.1364L455.102 44.0782ZM458.818 42.734C459.439 42.5067 460.06 42.2775 460.682 42.0467L460.333 41.1092C459.713 41.3396 459.093 41.5682 458.474 41.7951L458.818 42.734ZM462.534 41.3547C463.15 41.1233 463.766 40.8902 464.383 40.6556L464.028 39.7209C463.412 39.9551 462.797 40.1876 462.182 40.4186L462.534 41.3547ZM466.235 39.9472C466.851 39.7107 467.466 39.4727 468.082 39.2333L467.719 38.3013C467.105 38.5402 466.49 38.7778 465.877 39.0139L466.235 39.9472ZM469.923 38.5138C470.537 38.2725 471.151 38.03 471.766 37.7862L471.397 36.8567C470.784 37.1001 470.17 37.3422 469.557 37.583L469.923 38.5138ZM473.606 37.0526C474.217 36.8076 474.829 36.5614 475.44 36.314L475.065 35.387C474.455 35.6339 473.844 35.8797 473.234 36.1243L473.606 37.0526ZM477.274 35.5688C477.885 35.3194 478.496 35.0689 479.106 34.8175L478.726 33.8928C478.116 34.1439 477.506 34.394 476.896 34.6429L477.274 35.5688ZM480.935 34.0612C481.544 33.8082 482.153 33.5542 482.761 33.2994L482.375 32.3771C481.768 32.6315 481.16 32.8851 480.551 33.1377L480.935 34.0612ZM484.585 32.5324C485.194 32.2754 485.802 32.0177 486.409 31.7593L486.017 30.8391C485.411 31.0972 484.804 31.3546 484.196 31.6111L484.585 32.5324ZM488.229 30.9818C488.835 30.7219 489.44 30.4614 490.044 30.2003L489.647 29.2824C489.044 29.5431 488.44 29.8033 487.835 30.0627L488.229 30.9818ZM491.863 29.4114C492.468 29.1478 493.073 28.8836 493.677 28.6189L493.275 27.7031C492.672 27.9674 492.068 28.2312 491.464 28.4945L491.863 29.4114ZM495.484 27.8236C496.09 27.5563 496.694 27.2885 497.297 27.0204L496.891 26.1066C496.289 26.3744 495.685 26.6418 495.08 26.9088L495.484 27.8236ZM499.106 26.2134C499.707 25.9442 500.308 25.6746 500.906 25.4049L500.495 24.4931C499.898 24.7626 499.298 25.0318 498.697 25.3007L499.106 26.2134ZM502.713 24.5883C503.316 24.3148 503.917 24.0411 504.517 23.7673L504.101 22.8576C503.503 23.131 502.902 23.4044 502.299 23.6776L502.713 24.5883ZM506.31 22.946C506.912 22.6695 507.512 22.3931 508.11 22.1167L507.69 21.209C507.093 21.4851 506.494 21.7612 505.893 22.0373L506.31 22.946ZM509.91 21.2822C510.507 21.0042 511.103 20.7263 511.696 20.4486L511.272 19.5429C510.68 19.8202 510.085 20.0978 509.488 20.3755L509.91 21.2822ZM513.49 19.6068C514.091 19.3239 514.689 19.0414 515.285 18.7592L514.857 17.8554C514.262 18.1373 513.664 18.4195 513.064 18.7021L513.49 19.6068ZM517.064 17.9139C517.663 17.6284 518.259 17.3435 518.853 17.0591L518.421 16.1573C517.828 16.4414 517.232 16.726 516.634 17.0111L517.064 17.9139ZM520.642 16.199C521.235 15.9129 521.826 15.6275 522.412 15.3429L521.976 14.4431C521.39 14.7274 520.8 15.0125 520.208 15.2982L520.642 16.199ZM524.2 14.4737C524.797 14.1822 525.391 13.8916 525.981 13.602L525.541 12.7043C524.951 12.9935 524.358 13.2838 523.761 13.5749L524.2 14.4737ZM527.74 12.7363C528.341 12.4398 528.937 12.1445 529.529 11.8504L529.085 10.9547C528.493 11.2484 527.897 11.5434 527.297 11.8396L527.74 12.7363ZM531.3 10.9686C531.89 10.6739 532.475 10.3807 533.056 10.0889L532.607 9.19535C532.027 9.48678 531.442 9.7797 530.853 10.074L531.3 10.9686ZM534.841 9.18897C535.431 8.89068 536.015 8.5941 536.595 8.29934L536.141 7.40808C535.563 7.70246 534.979 7.99867 534.39 8.29658L534.841 9.18897ZM538.362 7.39725C538.957 7.09258 539.546 6.79005 540.128 6.48978L539.67 5.60091C539.088 5.90077 538.5 6.20289 537.906 6.50716L538.362 7.39725ZM541.864 5.59216C542.465 5.2804 543.059 4.97131 543.645 4.66506L543.182 3.77876C542.596 4.08456 542.004 4.39321 541.404 4.70453L541.864 5.59216ZM545.38 3.75497C545.977 3.44086 546.566 3.13003 547.145 2.82264L546.677 1.93916C546.098 2.24605 545.511 2.5564 544.915 2.87003L545.38 3.75497Z" fill="black"/>
</svg>
