<svg width="370" height="579" viewBox="0 0 370 579" fill="none" xmlns="http://www.w3.org/2000/svg">
<rect y="233" width="348" height="345" fill="#D9D9D9"/>
<path d="M348 236C348 329.888 270.098 406 174 406C77.9025 406 0 329.888 0 236C0 142.112 77.9025 66 174 66C270.098 66 348 142.112 348 236Z" fill="#D9D9D9"/>
<g clip-path="url(#clip0_109_2653)">
<path d="M121.143 110.16C119.29 117.517 113.252 132.311 113.199 139.941L113.617 139.401C114.749 140.847 115.997 142.198 117.347 143.442C119.128 140.977 121.404 138.91 124.028 137.373C122.933 140.696 122.514 144.205 122.796 147.693C127.049 156.636 140.27 150.599 148.21 148.48C157.531 156.611 168.591 157.559 181.924 150.344C185.91 150.214 190.344 149.862 192.782 147.165C195.221 144.467 182.536 130.676 183.576 127.222C190.982 102.613 190.563 105.29 180.858 95.9073C178.722 93.8426 178.261 90.3908 175.744 88.4859C172.254 85.8458 167.412 85.546 162.963 85.3833C164.1 85.2893 165.194 84.9042 166.139 84.2651C167.084 83.6259 167.849 82.7542 168.36 81.7339C168.791 80.7172 168.933 79.6012 168.771 78.5088C168.608 77.4164 168.147 76.3902 167.438 75.5433C165.533 73.1778 162.1 72.1184 158.933 72.1677C155.835 72.3765 152.787 73.0608 149.897 74.1965C147.995 74.7144 146.201 75.5686 144.601 76.7188C143.846 77.2637 143.275 78.0261 142.965 78.904C142.655 79.7819 142.621 80.7335 142.866 81.6316C143.241 82.4409 143.793 83.1552 144.482 83.7212C145.171 84.2872 145.979 84.6904 146.845 84.9006C148.172 85.2605 149.541 85.4423 150.915 85.4413C144.606 85.4796 138.458 87.438 133.29 91.056C126.83 95.7182 123.006 102.805 121.143 110.16Z" fill="#2F2E41"/>
<path d="M185.222 125.117C188.464 111.624 180.153 98.0574 166.66 94.8156C153.167 91.5739 139.6 99.8845 136.358 113.378C133.117 126.871 141.427 140.438 154.921 143.679C168.414 146.921 181.981 138.611 185.222 125.117Z" fill="#FFB6B6"/>
<path d="M144.017 109.155C146.054 113.321 150.371 114.166 154.303 114.525C155.543 114.642 156.789 114.738 158.041 114.805C158.415 114.18 158.819 113.563 159.248 112.974C161.03 110.508 163.305 108.441 165.93 106.904C165.061 109.53 164.621 112.278 164.624 115.043C166.975 115.064 169.33 115.023 171.689 114.918C173.718 115.07 175.728 114.436 177.303 113.148C178.878 111.86 179.898 110.016 180.153 107.997C182.746 111.179 185.699 114.105 189.317 115.017C193.541 115.917 186.858 113.959 188.964 110.188C190.678 107.402 191.364 103.879 191.746 100.517C192.194 96.5212 192.13 91.9969 189.885 89.8054C188.084 88.0297 180.99 93.7142 178.576 94.2215C173.252 95.3656 183.508 91.6933 178.53 93.9L178.225 94.946C178.388 89.4745 175.757 84.5892 171.933 83.2443C169.356 82.348 166.483 82.9476 163.699 83.579C160.101 84.2327 156.618 85.4107 153.362 87.0754C149.644 89.1175 146.648 92.2583 144.784 96.0682C142.799 100.207 142.26 105.556 144.017 109.155Z" fill="#2F2E41"/>
<path d="M167.348 81.0583C167.093 81.0192 167.742 81.0258 167.522 81.0618C167.631 81.0405 167.738 81.0104 167.842 80.9718C167.859 80.9657 168.097 80.8529 167.94 80.9334C168.295 80.7726 168.595 80.5125 168.805 80.1845C169.292 79.3817 169.64 78.5028 169.834 77.5845C170.073 76.3734 170.564 75.2265 171.277 74.219C171.482 73.9489 171.747 73.7308 172.052 73.5825C172.356 73.4342 172.692 73.3597 173.03 73.3653C173.369 73.3708 173.702 73.4562 174.001 73.6144C174.301 73.7726 174.559 73.9992 174.754 74.2758C175.385 75.2826 175.122 76.6644 174.919 77.7649C174.711 78.908 174.32 80.0101 173.761 81.0287C172.819 82.698 171.412 84.0573 169.711 84.9408C167.743 85.9738 165.495 86.3451 163.3 85.9996C163.006 85.9219 162.74 85.7602 162.536 85.5343C162.332 85.3084 162.198 85.0281 162.151 84.7273C162.103 84.4266 162.144 84.1186 162.268 83.8407C162.393 83.5628 162.595 83.3271 162.851 83.1623L166.173 81.2443C166.347 81.1376 166.541 81.0663 166.742 81.0344C166.944 81.0025 167.15 81.0106 167.348 81.0583C167.547 81.106 167.734 81.1923 167.899 81.3123C168.064 81.4324 168.204 81.5838 168.311 81.7578C168.418 81.9319 168.489 82.1253 168.521 82.327C168.553 82.5286 168.545 82.7346 168.497 82.9331C168.449 83.1316 168.363 83.3188 168.243 83.4839C168.123 83.6491 167.971 83.789 167.797 83.8956L164.475 85.8136L164.027 82.9763C164.483 83.0434 164.945 83.0592 165.404 83.0235C165.898 83.0061 166.386 82.9186 166.854 82.7637C167.307 82.6408 167.744 82.4689 168.159 82.2512C168.425 82.1111 168.683 81.9575 168.934 81.7912C169.024 81.7307 169.114 81.6686 169.203 81.6048C169.196 81.6094 169.573 81.3154 169.409 81.4518C169.824 81.0992 170.206 80.7086 170.549 80.2852C170.67 80.1351 170.779 79.9754 170.874 79.8077C171.04 79.5342 171.191 79.2513 171.325 78.9603C171.595 78.3459 171.786 77.7004 171.896 77.0386C171.949 76.7595 171.988 76.4778 172.012 76.1947C172.008 76.0416 172.015 75.8884 172.033 75.7362C172.115 75.3679 172.036 75.9443 172.206 76.0757L172.92 76.4654C173.046 76.4851 173.176 76.4761 173.299 76.4389C173.421 76.4018 173.534 76.3375 173.629 76.2509C173.691 76.1323 173.676 76.1525 173.586 76.3115C173.48 76.4984 173.387 76.6918 173.306 76.8905C173.132 77.356 172.983 77.83 172.857 78.3107C172.602 79.3315 172.238 80.3221 171.773 81.2656C171.32 82.2175 170.578 83.0022 169.653 83.5078C168.729 84.0134 167.668 84.2142 166.622 84.0815C166.223 83.9822 165.879 83.73 165.664 83.3793C165.449 83.0286 165.381 82.6074 165.474 82.2067C165.577 81.8102 165.83 81.4692 166.18 81.2551C166.529 81.0411 166.948 80.9705 167.348 81.0583Z" fill="#2F2E41"/>
<path d="M158.159 555.251L169.689 555.25L175.174 510.779H158.157L158.159 555.251Z" fill="#FFB6B6"/>
<path d="M173.526 556.288V548.472L170.495 548.657L158.156 549.388L155.301 549.564L153.118 575.741L153.001 577.145H161.187L161.45 575.751L162.639 569.416L165.709 575.751L166.382 577.145H188.086C189.378 577.136 190.614 576.619 191.526 575.705C192.439 574.791 192.953 573.554 192.959 572.262C193.875 567.984 175.826 558.735 173.526 556.288Z" fill="#2F2E41"/>
<path d="M29.8 541.356L39.293 547.899L69.048 514.396L55.037 504.74L29.8 541.356Z" fill="#FFB6B6"/>
<path d="M41.8627 550.931L46.2986 544.496L43.6979 542.928L33.1243 536.528L30.6736 535.052L14.0196 555.366L13.1268 556.455L19.8672 561.101L20.8749 560.103L25.449 555.562L24.3815 562.52L24.1442 564.049L42.0145 576.367C43.0825 577.093 44.3939 577.369 45.664 577.134C46.934 576.899 48.0601 576.173 48.7977 575.112C51.9802 572.11 42.3681 554.251 41.8627 550.931Z" fill="#2F2E41"/>
<path d="M316.939 103.122C316.048 105.06 314.436 106.574 312.446 107.342C310.456 108.11 308.245 108.071 306.283 107.233C305.887 107.056 305.506 106.847 305.144 106.608L255.649 144.106L240.098 130.939L303.363 95.115C304.472 93.6925 306.02 92.677 307.767 92.227C309.513 91.777 311.36 91.9179 313.018 92.6276C314.915 93.4615 316.404 95.015 317.156 96.9465C317.908 98.8779 317.862 101.029 317.028 102.927C317 102.992 316.97 103.057 316.939 103.122Z" fill="#FFB6B6"/>
<path d="M171.591 208.436C171.591 208.436 154.099 203.973 166.352 181.003C178.605 158.033 225.733 132.418 228.995 132.099C232.257 131.78 229.611 134.888 235.262 129.765C239.857 125.598 241.738 129.567 241.909 127.541C242.36 122.198 249.326 131.298 248.401 124.735C247.476 118.171 263.217 139.282 263.217 139.282C263.217 139.282 263.213 143.195 254.945 146.369C250.301 148.152 247.062 146.642 247.171 150.637C247.28 154.631 237.755 153.137 236.521 154.011C235.287 154.884 214.458 182.638 214.458 182.638L171.591 208.436Z" fill="#FF9843"/>
<path d="M337.032 182.204C315.65 176.882 297.292 166.42 282.941 149.149C281.847 148.479 281.063 147.402 280.762 146.155C280.461 144.908 280.667 143.592 281.335 142.496L306.299 101.646C306.969 100.552 308.046 99.7681 309.293 99.4671C310.54 99.166 311.856 99.3719 312.951 100.04L367.042 133.095C368.136 133.765 368.92 134.842 369.221 136.089C369.522 137.336 369.316 138.652 368.648 139.747L343.685 180.598C343.014 181.692 341.938 182.476 340.69 182.777C339.443 183.078 338.127 182.872 337.032 182.204Z" fill="#E6E6E6"/>
<path d="M322.609 169.087C311.351 167.858 299.65 158.859 287.834 147.836C286.81 147.208 286.076 146.2 285.794 145.032C285.512 143.863 285.705 142.631 286.33 141.605L307.785 106.498C308.412 105.473 309.421 104.739 310.589 104.457C311.757 104.175 312.989 104.368 314.015 104.993L362.149 134.408C363.174 135.035 363.907 136.044 364.189 137.212C364.471 138.38 364.278 139.612 363.653 140.638L350.362 162.387C347.566 166.951 343.074 170.219 337.871 171.475C332.668 172.731 327.179 171.872 322.609 169.087Z" fill="white"/>
<path d="M342.958 133.741C343.446 131.813 341.596 129.681 338.824 128.979C336.053 128.276 333.41 129.27 332.922 131.198C332.433 133.126 334.284 135.258 337.055 135.96C339.826 136.662 342.469 135.669 342.958 133.741Z" fill="white"/>
<path d="M309.114 133.523C309.603 131.595 307.752 129.463 304.981 128.76C302.21 128.058 299.567 129.052 299.078 130.979C298.59 132.907 300.44 135.04 303.212 135.742C305.983 136.444 308.626 135.451 309.114 133.523Z" fill="#3F3D56"/>
<path d="M349.309 161.819C349.797 159.891 347.947 157.759 345.175 157.057C342.404 156.355 339.761 157.348 339.273 159.276C338.784 161.204 340.635 163.336 343.406 164.039C346.178 164.741 348.82 163.747 349.309 161.819Z" fill="#FF6584"/>
<path d="M357.198 172.407C357.399 170.611 356.549 169.043 355.299 168.903C354.05 168.763 352.875 170.106 352.674 171.902C352.474 173.697 353.324 175.266 354.573 175.406C355.822 175.545 356.997 174.203 357.198 172.407Z" fill="#E6E6E6"/>
<path d="M359.981 193.615C360.182 191.819 359.332 190.25 358.082 190.111C356.833 189.971 355.658 191.314 355.457 193.109C355.257 194.905 356.107 196.474 357.356 196.614C358.605 196.753 359.78 195.411 359.981 193.615Z" fill="#3F3D56"/>
<path d="M325.381 153.199C325.581 151.403 324.731 149.835 323.482 149.695C322.233 149.555 321.058 150.898 320.857 152.694C320.656 154.489 321.506 156.058 322.756 156.198C324.005 156.337 325.18 154.995 325.381 153.199Z" fill="#E6E6E6"/>
<path d="M342.412 146.8C342.613 145.005 341.763 143.436 340.514 143.296C339.265 143.157 338.089 144.499 337.889 146.295C337.688 148.091 338.538 149.66 339.787 149.799C341.036 149.939 342.212 148.596 342.412 146.8Z" fill="#FF6584"/>
<path d="M321.43 129.514C321.631 127.718 320.781 126.15 319.532 126.01C318.282 125.87 317.107 127.213 316.907 129.009C316.706 130.804 317.556 132.373 318.805 132.513C320.054 132.652 321.23 131.31 321.43 129.514Z" fill="#3F3D56"/>
<path d="M215.263 304.623L215.56 301.504L202.736 266.346L148.085 276.884C148.085 276.884 119.919 311.583 126.182 334.549C127.881 340.777 106.508 382.145 113.542 377.683C120.576 373.222 106.226 385.64 109.901 385.931C113.576 386.222 107.805 390.551 106.712 392.912C81.5377 447.284 41.2772 518.278 41.2772 518.278C41.2772 518.278 49.6505 541.817 62.8624 528.655C76.0743 515.494 164.459 398.576 164.459 398.576C164.459 398.576 163.268 406.188 161.607 417.761C156.475 453.516 148.414 525.495 155.576 529.222C161.294 532.181 167.695 533.568 174.125 533.24C174.125 533.24 221.526 423.629 215.263 402.751" fill="#2F2E41"/>
<path d="M182.949 157.986L177.862 147.413L150.305 150.752L147.456 159.378C139.47 167.356 132.891 176.628 127.999 186.802C120.374 203.091 145.752 275.046 141.576 279.222C137.4 283.397 121.929 285.647 128.888 290.763C135.847 295.878 128.888 292.607 127.154 298.443C125.419 304.279 122.004 327.508 122.004 327.508C122.004 327.508 148.5 349.718 165.202 316.313C189.56 318.4 194.432 295.434 194.432 295.434L202.621 281.872C213.245 277.008 196.868 221.316 201.043 210.181C205.219 199.046 182.949 157.986 182.949 157.986Z" fill="#FF9843"/>
<path d="M208.133 277.205C208.196 273.114 208.184 268.71 210 264.941C211.364 262.111 213.897 259.283 217.233 259.046C220.07 258.845 223.29 260.522 223.551 263.606C223.861 267.271 220.775 270.773 218.276 273.087C215.257 275.86 211.581 277.819 207.595 278.777C207.316 278.862 207.066 279.025 206.878 279.248C206.689 279.47 206.568 279.743 206.53 280.032C206.492 280.322 206.539 280.616 206.664 280.88C206.79 281.144 206.988 281.365 207.237 281.519C210.41 283.274 213.215 285.625 215.498 288.443C217.606 291.047 219.786 294.486 220.231 297.874C220.421 299.318 220.165 301.073 218.636 301.676C217.184 302.249 215.418 301.503 214.172 300.765C211.242 298.816 208.946 296.052 207.567 292.814C205.865 289.146 205.292 285.055 205.92 281.06C206.23 279.172 203.34 278.359 203.028 280.263C201.653 288.649 205 298.637 212.503 303.26C215.918 305.364 221.126 305.733 222.84 301.294C224.393 297.272 221.823 292.439 219.676 289.13C216.922 284.889 213.171 281.386 208.751 278.928L208.393 281.67C212.749 280.598 216.774 278.469 220.11 275.47C223.303 272.603 226.741 268.347 226.564 263.803C226.404 259.719 223.141 256.757 219.229 256.16C214.976 255.511 211.181 257.828 208.744 261.188C205.401 265.797 205.218 271.733 205.133 277.204C205.147 277.593 205.311 277.962 205.591 278.232C205.87 278.502 206.244 278.653 206.633 278.653C207.022 278.653 207.396 278.502 207.676 278.232C207.956 277.962 208.12 277.593 208.133 277.205Z" fill="#2F2E41"/>
<path d="M86.3009 334.488C88.1927 333.502 89.6253 331.817 90.2938 329.792C90.9623 327.766 90.814 325.559 89.8804 323.641C89.6845 323.254 89.4569 322.884 89.1999 322.535L124.206 271.248L110.287 256.366L77.6329 321.324C76.2668 322.501 75.3291 324.098 74.9659 325.865C74.6028 327.632 74.8348 329.469 75.6255 331.09C76.0843 332.008 76.7195 332.826 77.4947 333.499C78.2699 334.172 79.17 334.685 80.1436 335.01C81.1172 335.334 82.1452 335.464 83.169 335.391C84.1927 335.319 85.1921 335.045 86.1101 334.587C86.1742 334.555 86.2378 334.522 86.3009 334.488Z" fill="#FFB6B6"/>
<path d="M184.305 184.113C184.305 184.113 178.983 166.863 156.646 180.237C134.31 193.61 111.055 241.946 110.897 245.219C110.74 248.493 113.714 245.697 108.876 251.594C104.941 256.39 108.998 258.072 106.983 258.343C101.669 259.057 111.101 265.565 104.501 264.966C97.8998 264.366 119.762 279.045 119.762 279.045C119.762 279.045 123.67 278.847 126.432 270.432C127.984 265.706 126.315 262.545 130.31 262.457C134.305 262.369 132.342 252.93 133.154 251.654C133.965 250.378 160.656 228.203 160.656 228.203L184.305 184.113Z" fill="#FF9843"/>
<path d="M149.348 99.0117C165.772 80.0705 136.576 130.221 158.387 149.772C149.497 156.826 116.891 154.323 118.734 149.772C120.576 145.222 126.615 101.802 133.096 99.0117C139.576 96.2215 149.348 99.0117 149.348 99.0117Z" fill="#2F2E41"/>
<path d="M126.958 336.741C127.446 334.813 125.596 332.681 122.825 331.979C120.053 331.276 117.41 332.27 116.922 334.198C116.433 336.126 118.284 338.258 121.055 338.96C123.827 339.662 126.469 338.669 126.958 336.741Z" fill="white"/>
<path d="M93.1142 336.523C93.6028 334.595 91.7522 332.463 88.9809 331.76C86.2095 331.058 83.5668 332.051 83.0783 333.979C82.5897 335.907 84.4402 338.04 87.2116 338.742C89.9829 339.444 92.6256 338.451 93.1142 336.523Z" fill="#3F3D56"/>
<path d="M133.309 364.819C133.797 362.891 131.947 360.759 129.175 360.057C126.404 359.355 123.761 360.348 123.273 362.276C122.784 364.204 124.635 366.336 127.406 367.039C130.177 367.741 132.82 366.747 133.309 364.819Z" fill="#FF6584"/>
<path d="M141.198 375.407C141.399 373.611 140.549 372.043 139.3 371.903C138.05 371.763 136.875 373.106 136.674 374.902C136.474 376.697 137.324 378.266 138.573 378.406C139.822 378.545 140.997 377.203 141.198 375.407Z" fill="#E6E6E6"/>
<path d="M143.981 396.615C144.182 394.819 143.332 393.25 142.083 393.111C140.833 392.971 139.658 394.314 139.457 396.109C139.257 397.905 140.107 399.474 141.356 399.614C142.605 399.753 143.78 398.411 143.981 396.615Z" fill="#3F3D56"/>
<path d="M109.381 356.199C109.581 354.403 108.731 352.834 107.482 352.695C106.233 352.555 105.058 353.898 104.857 355.693C104.656 357.489 105.506 359.058 106.756 359.198C108.005 359.337 109.18 357.995 109.381 356.199Z" fill="#E6E6E6"/>
<path d="M126.412 349.8C126.613 348.005 125.763 346.436 124.514 346.296C123.265 346.157 122.089 347.499 121.889 349.295C121.688 351.091 122.538 352.66 123.787 352.799C125.037 352.939 126.212 351.596 126.412 349.8Z" fill="#FF6584"/>
<path d="M105.43 332.514C105.631 330.718 104.781 329.15 103.532 329.01C102.282 328.87 101.107 330.213 100.907 332.009C100.706 333.804 101.556 335.373 102.805 335.513C104.054 335.652 105.23 334.31 105.43 332.514Z" fill="#3F3D56"/>
<path d="M325.958 286.741C326.446 284.813 324.596 282.681 321.825 281.979C319.053 281.276 316.41 282.27 315.922 284.198C315.433 286.126 317.284 288.258 320.055 288.96C322.827 289.662 325.469 288.669 325.958 286.741Z" fill="white"/>
<path d="M292.114 286.523C292.603 284.595 290.752 282.463 287.981 281.76C285.21 281.058 282.567 282.052 282.078 283.979C281.59 285.907 283.44 288.04 286.212 288.742C288.983 289.444 291.626 288.451 292.114 286.523Z" fill="#3F3D56"/>
<path d="M332.309 314.819C332.797 312.891 330.947 310.759 328.175 310.057C325.404 309.355 322.761 310.348 322.273 312.276C321.784 314.204 323.635 316.336 326.406 317.039C329.178 317.741 331.82 316.747 332.309 314.819Z" fill="#FF6584"/>
<path d="M340.198 325.407C340.399 323.611 339.549 322.043 338.299 321.903C337.05 321.763 335.875 323.106 335.674 324.902C335.474 326.697 336.324 328.266 337.573 328.406C338.822 328.545 339.997 327.203 340.198 325.407Z" fill="#E6E6E6"/>
<path d="M342.981 346.615C343.182 344.819 342.332 343.25 341.082 343.111C339.833 342.971 338.658 344.314 338.457 346.109C338.257 347.905 339.107 349.474 340.356 349.614C341.605 349.753 342.78 348.411 342.981 346.615Z" fill="#3F3D56"/>
<path d="M308.381 306.199C308.581 304.403 307.731 302.835 306.482 302.695C305.233 302.555 304.058 303.898 303.857 305.694C303.656 307.489 304.506 309.058 305.756 309.198C307.005 309.337 308.18 307.995 308.381 306.199Z" fill="#E6E6E6"/>
<path d="M325.412 299.8C325.613 298.005 324.763 296.436 323.514 296.296C322.265 296.157 321.089 297.499 320.889 299.295C320.688 301.091 321.538 302.66 322.787 302.799C324.037 302.939 325.212 301.596 325.412 299.8Z" fill="#FF6584"/>
<path d="M304.43 282.514C304.631 280.718 303.781 279.15 302.532 279.01C301.282 278.87 300.107 280.213 299.907 282.009C299.706 283.804 300.556 285.373 301.805 285.513C303.054 285.652 304.23 284.31 304.43 282.514Z" fill="#3F3D56"/>
<path d="M56.9579 136.741C57.4464 134.813 55.5959 132.681 52.8245 131.979C50.0532 131.276 47.4105 132.27 46.9219 134.198C46.4333 136.126 48.2839 138.258 51.0552 138.96C53.8266 139.662 56.4693 138.669 56.9579 136.741Z" fill="white"/>
<path d="M23.1142 136.523C23.6028 134.595 21.7522 132.463 18.9809 131.76C16.2095 131.058 13.5668 132.051 13.0783 133.979C12.5897 135.907 14.4402 138.04 17.2116 138.742C19.9829 139.444 22.6256 138.451 23.1142 136.523Z" fill="#3F3D56"/>
<path d="M63.3088 164.819C63.7974 162.891 61.9468 160.759 59.1755 160.057C56.4041 159.355 53.7614 160.348 53.2728 162.276C52.7843 164.204 54.6348 166.336 57.4062 167.039C60.1775 167.741 62.8202 166.747 63.3088 164.819Z" fill="#FF6584"/>
<path d="M71.1981 175.407C71.3988 173.611 70.5488 172.043 69.2996 171.903C68.0504 171.763 66.8751 173.106 66.6745 174.902C66.4738 176.697 67.3238 178.266 68.573 178.406C69.8222 178.545 70.9975 177.203 71.1981 175.407Z" fill="#E6E6E6"/>
<path d="M73.9811 196.615C74.1817 194.819 73.3317 193.25 72.0826 193.111C70.8334 192.971 69.6581 194.314 69.4574 196.109C69.2568 197.905 70.1068 199.474 71.3559 199.614C72.6051 199.753 73.7804 198.411 73.9811 196.615Z" fill="#3F3D56"/>
<path d="M39.3807 156.199C39.5814 154.403 38.7314 152.834 37.4822 152.695C36.233 152.555 35.0577 153.898 34.8571 155.693C34.6564 157.489 35.5064 159.058 36.7556 159.198C38.0048 159.337 39.1801 157.995 39.3807 156.199Z" fill="#E6E6E6"/>
<path d="M56.4125 149.8C56.6131 148.005 55.7631 146.436 54.5139 146.296C53.2648 146.157 52.0895 147.499 51.8888 149.295C51.6882 151.091 52.5382 152.66 53.7873 152.799C55.0365 152.939 56.2118 151.596 56.4125 149.8Z" fill="#FF6584"/>
<path d="M35.4301 132.514C35.6307 130.718 34.7807 129.15 33.5315 129.01C32.2824 128.87 31.107 130.213 30.9064 132.009C30.7057 133.804 31.5557 135.373 32.8049 135.513C34.0541 135.652 35.2294 134.31 35.4301 132.514Z" fill="#3F3D56"/>
<path d="M215.958 7.74103C216.446 5.81312 214.596 3.6809 211.824 2.97858C209.053 2.27625 206.41 3.26978 205.922 5.19769C205.433 7.1256 207.284 9.25782 210.055 9.96015C212.827 10.6625 215.469 9.66894 215.958 7.74103Z" fill="white"/>
<path d="M182.114 7.52277C182.603 5.59486 180.752 3.46264 177.981 2.76032C175.21 2.05799 172.567 3.05152 172.078 4.97943C171.59 6.90734 173.44 9.03956 176.212 9.74189C178.983 10.4442 181.626 9.45068 182.114 7.52277Z" fill="#3F3D56"/>
<path d="M222.309 35.8194C222.797 33.8915 220.947 31.7593 218.175 31.0569C215.404 30.3546 212.761 31.3482 212.273 33.2761C211.784 35.204 213.635 37.3362 216.406 38.0385C219.178 38.7408 221.82 37.7473 222.309 35.8194Z" fill="#FF6584"/>
<path d="M230.198 46.4072C230.399 44.6115 229.549 43.0426 228.3 42.9031C227.05 42.7635 225.875 44.106 225.674 45.9017C225.474 47.6974 226.324 49.2662 227.573 49.4058C228.822 49.5454 229.997 48.2029 230.198 46.4072Z" fill="#E6E6E6"/>
<path d="M232.981 67.6149C233.182 65.8192 232.332 64.2503 231.083 64.1108C229.833 63.9712 228.658 65.3137 228.457 67.1094C228.257 68.9051 229.107 70.474 230.356 70.6136C231.605 70.7532 232.78 69.4106 232.981 67.6149Z" fill="#3F3D56"/>
<path d="M198.381 27.1992C198.581 25.4035 197.731 23.8346 196.482 23.6951C195.233 23.5555 194.058 24.898 193.857 26.6937C193.656 28.4894 194.506 30.0582 195.756 30.1978C197.005 30.3374 198.18 28.9948 198.381 27.1992Z" fill="#E6E6E6"/>
<path d="M215.412 20.8005C215.613 19.0048 214.763 17.436 213.514 17.2964C212.265 17.1568 211.089 18.4993 210.889 20.295C210.688 22.0907 211.538 23.6595 212.787 23.7991C214.037 23.9387 215.212 22.5962 215.412 20.8005Z" fill="#FF6584"/>
<path d="M194.43 3.5141C194.631 1.71842 193.781 0.149579 192.532 0.00999821C191.282 -0.129582 190.107 1.21295 189.907 3.00864C189.706 4.80432 190.556 6.37316 191.805 6.51274C193.054 6.65232 194.23 5.30979 194.43 3.5141Z" fill="#3F3D56"/>
<path d="M258.445 560.94C258.91 560.962 259.37 560.84 259.763 560.591C260.157 560.342 260.464 559.978 260.643 559.549C260.823 559.12 260.866 558.645 260.767 558.191C260.668 557.736 260.432 557.323 260.09 557.007L259.935 556.389C259.955 556.339 259.976 556.29 259.996 556.24C260.465 555.134 261.249 554.191 262.252 553.53C263.254 552.868 264.43 552.518 265.631 552.522C266.832 552.527 268.005 552.886 269.003 553.555C270 554.224 270.778 555.173 271.238 556.282C273.076 560.71 275.417 565.146 275.994 569.828C276.247 571.898 276.14 573.996 275.677 576.029C279.995 566.609 282.238 556.37 282.252 546.008C282.253 543.407 282.109 540.809 281.82 538.225C281.581 536.106 281.249 534.003 280.825 531.914C278.51 520.583 273.541 509.963 266.325 500.925C262.832 499.019 260.007 496.089 258.232 492.528C257.588 491.249 257.134 489.882 256.882 488.472C257.276 488.524 258.367 482.524 258.07 482.155C258.619 481.322 259.602 480.908 260.202 480.095C263.184 476.052 267.293 476.758 269.438 482.252C274.02 484.565 274.064 488.4 271.253 492.089C269.464 494.436 269.218 497.612 267.649 500.124C267.81 500.331 267.978 500.531 268.14 500.738C271.091 504.533 273.664 508.609 275.821 512.906C275.296 508.092 275.922 503.222 277.647 498.697C279.395 494.479 282.672 490.928 285.557 487.282C286.321 486.302 287.357 485.571 288.536 485.181C289.714 484.79 290.982 484.758 292.179 485.088C293.376 485.418 294.449 486.095 295.261 487.035C296.073 487.974 296.588 489.133 296.742 490.365C296.747 490.419 296.753 490.472 296.759 490.526C296.33 490.768 295.911 491.025 295.5 491.296C294.984 491.641 294.585 492.133 294.354 492.708C294.123 493.284 294.071 493.916 294.205 494.521C294.339 495.127 294.653 495.678 295.106 496.102C295.558 496.526 296.128 496.803 296.741 496.898L296.804 496.908C296.651 498.452 296.381 499.983 295.997 501.487C299.698 515.803 291.707 521.017 280.295 521.251C280.043 521.38 279.798 521.509 279.546 521.632C281.713 527.773 283.072 534.169 283.589 540.66C283.882 544.489 283.865 548.336 283.537 552.163L283.557 552.028C284.384 547.772 286.654 543.933 289.983 541.157C294.929 537.095 301.916 535.599 307.252 532.333C307.819 531.969 308.478 531.775 309.152 531.773C309.826 531.771 310.486 531.962 311.055 532.324C311.624 532.685 312.077 533.201 312.362 533.812C312.647 534.423 312.751 535.102 312.663 535.77L312.641 535.913C311.846 536.237 311.071 536.61 310.322 537.03C309.894 537.272 309.474 537.528 309.064 537.8C308.548 538.144 308.149 538.637 307.917 539.212C307.686 539.788 307.634 540.42 307.769 541.025C307.903 541.631 308.217 542.182 308.669 542.606C309.122 543.03 309.692 543.307 310.305 543.402L310.368 543.411C310.413 543.418 310.452 543.424 310.497 543.431C309.138 546.676 307.23 549.662 304.858 552.26C302.544 564.757 292.602 565.943 281.968 562.304H281.962C280.795 567.374 279.104 572.309 276.917 577.03H258.897C258.832 576.83 258.774 576.623 258.716 576.423C260.384 576.527 262.059 576.428 263.702 576.126C262.365 574.485 261.028 572.832 259.691 571.191C259.662 571.16 259.633 571.128 259.607 571.094C258.929 570.254 258.245 569.421 257.566 568.582L257.566 568.581C257.53 566.007 257.826 563.439 258.445 560.94Z" fill="#F2F2F2"/>
<path d="M56.894 577.083C56.8936 577.24 56.924 577.395 56.9837 577.539C57.0433 577.684 57.1309 577.815 57.2416 577.926C57.3522 578.036 57.4836 578.124 57.6281 578.184C57.7727 578.243 57.9277 578.274 58.0841 578.273H311.374C311.69 578.273 311.992 578.148 312.216 577.925C312.439 577.702 312.564 577.399 312.564 577.083C312.564 576.768 312.439 576.465 312.216 576.242C311.992 576.019 311.69 575.893 311.374 575.893H58.0841C57.9277 575.893 57.7727 575.923 57.6281 575.983C57.4836 576.043 57.3522 576.13 57.2416 576.241C57.131 576.351 57.0433 576.483 56.9837 576.627C56.924 576.772 56.8936 576.927 56.894 577.083Z" fill="#CCCCCC"/>
</g>
<defs>
<clipPath id="clip0_109_2653">
<rect width="356.357" height="578.273" fill="white" transform="translate(13)"/>
</clipPath>
</defs>
</svg>
