<svg width="24" height="25" viewBox="0 0 24 25" fill="none" xmlns="http://www.w3.org/2000/svg">
<g clip-path="url(#clip0_276_1865)">
<path d="M18.656 1.0143L6.46402 13.2063C5.99836 13.6694 5.6292 14.2204 5.3779 14.8271C5.1266 15.4339 4.99817 16.0845 5.00002 16.7413V18.0843C5.00002 18.3495 5.10538 18.6039 5.29291 18.7914C5.48045 18.9789 5.7348 19.0843 6.00002 19.0843H7.34302C7.99978 19.0862 8.65039 18.9577 9.25718 18.7064C9.86396 18.4551 10.4149 18.086 10.878 17.6203L23.07 5.4283C23.6544 4.84247 23.9826 4.04878 23.9826 3.2213C23.9826 2.39383 23.6544 1.60013 23.07 1.0143C22.4757 0.446194 21.6852 0.12915 20.863 0.12915C20.0408 0.12915 19.2503 0.446194 18.656 1.0143ZM21.656 4.0143L9.46402 16.2063C8.90015 16.7667 8.13803 17.0822 7.34302 17.0843H7.00002V16.7413C7.0021 15.9463 7.31759 15.1842 7.87802 14.6203L20.07 2.4283C20.2836 2.22426 20.5676 2.11039 20.863 2.11039C21.1584 2.11039 21.4424 2.22426 21.656 2.4283C21.866 2.63882 21.9839 2.92399 21.9839 3.2213C21.9839 3.51861 21.866 3.80379 21.656 4.0143Z" fill="#FF9843"/>
<path d="M23 9.06299C22.7348 9.06299 22.4804 9.16834 22.2929 9.35588C22.1054 9.54342 22 9.79777 22 10.063V15.084H18C17.2044 15.084 16.4413 15.4001 15.8787 15.9627C15.3161 16.5253 15 17.2883 15 18.084V22.084H5C4.20435 22.084 3.44129 21.7679 2.87868 21.2053C2.31607 20.6427 2 19.8796 2 19.084V5.08398C2 4.28834 2.31607 3.52527 2.87868 2.96266C3.44129 2.40006 4.20435 2.08398 5 2.08398H14.042C14.3072 2.08398 14.5616 1.97863 14.7491 1.79109C14.9366 1.60355 15.042 1.3492 15.042 1.08398C15.042 0.818768 14.9366 0.564414 14.7491 0.376878C14.5616 0.189341 14.3072 0.0839844 14.042 0.0839844L5 0.0839844C3.67441 0.0855722 2.40356 0.612866 1.46622 1.5502C0.528882 2.48754 0.00158786 3.75839 0 5.08398L0 19.084C0.00158786 20.4096 0.528882 21.6804 1.46622 22.6178C2.40356 23.5551 3.67441 24.0824 5 24.084H16.343C16.9999 24.0859 17.6507 23.9574 18.2576 23.7061C18.8646 23.4548 19.4157 23.0857 19.879 22.62L22.535 19.962C23.0008 19.4989 23.37 18.948 23.6215 18.3412C23.873 17.7344 24.0016 17.0838 24 16.427V10.063C24 9.79777 23.8946 9.54342 23.7071 9.35588C23.5196 9.16834 23.2652 9.06299 23 9.06299ZM18.465 21.206C18.063 21.607 17.5547 21.8846 17 22.006V18.084C17 17.8188 17.1054 17.5644 17.2929 17.3769C17.4804 17.1893 17.7348 17.084 18 17.084H21.925C21.8013 17.6375 21.524 18.1449 21.125 18.548L18.465 21.206Z" fill="#FF9843"/>
</g>
<defs>
<clipPath id="clip0_276_1865">
<rect width="24" height="24" fill="white" transform="translate(0 0.0839844)"/>
</clipPath>
</defs>
</svg>
