<svg width="19" height="19" viewBox="0 0 19 19" fill="none" xmlns="http://www.w3.org/2000/svg">
<path d="M14.6942 3.22217H13.8692C13.6951 2.37573 13.2346 1.61518 12.5652 1.06871C11.8957 0.522236 11.0584 0.223259 10.1942 0.222168L8.69421 0.222168C7.83006 0.223259 6.9927 0.522236 6.32328 1.06871C5.65385 1.61518 5.19329 2.37573 5.01921 3.22217H4.19421C3.20002 3.22336 2.24688 3.61883 1.54388 4.32183C0.840875 5.02484 0.445405 5.97797 0.444214 6.97217L0.444214 14.4722C0.445405 15.4664 0.840875 16.4195 1.54388 17.1225C2.24688 17.8255 3.20002 18.221 4.19421 18.2222H14.6942C15.6884 18.221 16.6415 17.8255 17.3445 17.1225C18.0476 16.4195 18.443 15.4664 18.4442 14.4722V6.97217C18.443 5.97797 18.0476 5.02484 17.3445 4.32183C16.6415 3.61883 15.6884 3.22336 14.6942 3.22217ZM8.69421 1.72217H10.1942C10.6579 1.72409 11.1097 1.86923 11.4877 2.13773C11.8658 2.40624 12.1517 2.78499 12.3062 3.22217H6.58221C6.73678 2.78499 7.02264 2.40624 7.40069 2.13773C7.77874 1.86923 8.23052 1.72409 8.69421 1.72217ZM4.19421 4.72217H14.6942C15.291 4.72217 15.8632 4.95922 16.2852 5.38118C16.7072 5.80313 16.9442 6.37543 16.9442 6.97217V9.22217H1.94421V6.97217C1.94421 6.37543 2.18127 5.80313 2.60322 5.38118C3.02518 4.95922 3.59748 4.72217 4.19421 4.72217ZM14.6942 16.7222H4.19421C3.59748 16.7222 3.02518 16.4851 2.60322 16.0632C2.18127 15.6412 1.94421 15.0689 1.94421 14.4722V10.7222H8.69421V11.4722C8.69421 11.6711 8.77323 11.8618 8.91388 12.0025C9.05454 12.1432 9.2453 12.2222 9.44421 12.2222C9.64313 12.2222 9.83389 12.1432 9.97454 12.0025C10.1152 11.8618 10.1942 11.6711 10.1942 11.4722V10.7222H16.9442V14.4722C16.9442 15.0689 16.7072 15.6412 16.2852 16.0632C15.8632 16.4851 15.291 16.7222 14.6942 16.7222Z" fill="black"/>
</svg>
