<svg width="283" height="30" viewBox="0 0 283 30" fill="none" xmlns="http://www.w3.org/2000/svg">
<path d="M5.376 9.316V14.428H13.488V17.068H5.376V23.5H2.256V6.7H14.52V9.316H5.376ZM22.6577 23.668C21.3617 23.668 20.1937 23.388 19.1537 22.828C18.1137 22.268 17.2977 21.492 16.7057 20.5C16.1297 19.492 15.8417 18.356 15.8417 17.092C15.8417 15.828 16.1297 14.7 16.7057 13.708C17.2977 12.716 18.1137 11.94 19.1537 11.38C20.1937 10.82 21.3617 10.54 22.6577 10.54C23.9697 10.54 25.1457 10.82 26.1857 11.38C27.2257 11.94 28.0337 12.716 28.6097 13.708C29.2017 14.7 29.4977 15.828 29.4977 17.092C29.4977 18.356 29.2017 19.492 28.6097 20.5C28.0337 21.492 27.2257 22.268 26.1857 22.828C25.1457 23.388 23.9697 23.668 22.6577 23.668ZM22.6577 21.1C23.7617 21.1 24.6737 20.732 25.3937 19.996C26.1137 19.26 26.4737 18.292 26.4737 17.092C26.4737 15.892 26.1137 14.924 25.3937 14.188C24.6737 13.452 23.7617 13.084 22.6577 13.084C21.5537 13.084 20.6417 13.452 19.9217 14.188C19.2177 14.924 18.8657 15.892 18.8657 17.092C18.8657 18.292 19.2177 19.26 19.9217 19.996C20.6417 20.732 21.5537 21.1 22.6577 21.1ZM38.2464 23.668C36.9184 23.668 35.7264 23.388 34.6704 22.828C33.6144 22.268 32.7904 21.492 32.1984 20.5C31.6064 19.492 31.3104 18.356 31.3104 17.092C31.3104 15.828 31.6064 14.7 32.1984 13.708C32.7904 12.716 33.6064 11.94 34.6464 11.38C35.7024 10.82 36.9024 10.54 38.2464 10.54C39.5104 10.54 40.6144 10.796 41.5584 11.308C42.5184 11.82 43.2384 12.556 43.7184 13.516L41.4144 14.86C41.0464 14.268 40.5824 13.828 40.0224 13.54C39.4784 13.236 38.8784 13.084 38.2224 13.084C37.1024 13.084 36.1744 13.452 35.4384 14.188C34.7024 14.908 34.3344 15.876 34.3344 17.092C34.3344 18.308 34.6944 19.284 35.4144 20.02C36.1504 20.74 37.0864 21.1 38.2224 21.1C38.8784 21.1 39.4784 20.956 40.0224 20.668C40.5824 20.364 41.0464 19.916 41.4144 19.324L43.7184 20.668C43.2224 21.628 42.4944 22.372 41.5344 22.9C40.5904 23.412 39.4944 23.668 38.2464 23.668ZM58.7198 10.684V23.5H55.8638V21.868C55.3838 22.444 54.7838 22.892 54.0638 23.212C53.3438 23.516 52.5678 23.668 51.7358 23.668C50.0238 23.668 48.6718 23.196 47.6798 22.252C46.7038 21.292 46.2158 19.876 46.2158 18.004V10.684H49.2158V17.596C49.2158 18.748 49.4718 19.612 49.9838 20.188C50.5118 20.748 51.2558 21.028 52.2158 21.028C53.2878 21.028 54.1358 20.7 54.7598 20.044C55.3998 19.372 55.7198 18.412 55.7198 17.164V10.684H58.7198ZM66.6077 23.668C65.5677 23.668 64.5517 23.532 63.5597 23.26C62.5677 22.988 61.7757 22.644 61.1837 22.228L62.3357 19.948C62.9117 20.332 63.5997 20.644 64.3997 20.884C65.2157 21.108 66.0157 21.22 66.7997 21.22C68.5917 21.22 69.4877 20.748 69.4877 19.804C69.4877 19.356 69.2557 19.044 68.7917 18.868C68.3437 18.692 67.6157 18.524 66.6077 18.364C65.5517 18.204 64.6877 18.02 64.0157 17.812C63.3597 17.604 62.7837 17.244 62.2877 16.732C61.8077 16.204 61.5677 15.476 61.5677 14.548C61.5677 13.332 62.0717 12.364 63.0797 11.644C64.1037 10.908 65.4797 10.54 67.2077 10.54C68.0877 10.54 68.9677 10.644 69.8477 10.852C70.7277 11.044 71.4477 11.308 72.0077 11.644L70.8557 13.924C69.7677 13.284 68.5437 12.964 67.1837 12.964C66.3037 12.964 65.6317 13.1 65.1677 13.372C64.7197 13.628 64.4957 13.972 64.4957 14.404C64.4957 14.884 64.7357 15.228 65.2157 15.436C65.7117 15.628 66.4717 15.812 67.4957 15.988C68.5197 16.148 69.3597 16.332 70.0157 16.54C70.6717 16.748 71.2317 17.1 71.6957 17.596C72.1757 18.092 72.4157 18.796 72.4157 19.708C72.4157 20.908 71.8957 21.868 70.8557 22.588C69.8157 23.308 68.3997 23.668 66.6077 23.668ZM75.9593 23.668C75.4153 23.668 74.9513 23.484 74.5673 23.116C74.1833 22.732 73.9913 22.252 73.9913 21.676C73.9913 21.084 74.1753 20.604 74.5433 20.236C74.9273 19.868 75.3993 19.684 75.9593 19.684C76.5193 19.684 76.9833 19.868 77.3513 20.236C77.7353 20.604 77.9273 21.084 77.9273 21.676C77.9273 22.252 77.7353 22.732 77.3513 23.116C76.9673 23.484 76.5033 23.668 75.9593 23.668Z" fill="black"/>
<path d="M80.8586 10.684H83.8586V23.5H80.8586V10.684ZM82.3706 8.572C81.8266 8.572 81.3706 8.404 81.0026 8.068C80.6346 7.716 80.4506 7.284 80.4506 6.772C80.4506 6.26 80.6346 5.836 81.0026 5.5C81.3706 5.148 81.8266 4.972 82.3706 4.972C82.9146 4.972 83.3706 5.14 83.7386 5.476C84.1066 5.796 84.2906 6.204 84.2906 6.7C84.2906 7.228 84.1066 7.676 83.7386 8.044C83.3866 8.396 82.9306 8.572 82.3706 8.572ZM95.0681 10.54C96.6841 10.54 97.9801 11.012 98.9561 11.956C99.9321 12.9 100.42 14.3 100.42 16.156V23.5H97.4201V16.54C97.4201 15.42 97.1561 14.58 96.6281 14.02C96.1001 13.444 95.3481 13.156 94.3721 13.156C93.2681 13.156 92.3961 13.492 91.7561 14.164C91.1161 14.82 90.7961 15.772 90.7961 17.02V23.5H87.7961V10.684H90.6521V12.34C91.1481 11.748 91.7721 11.3 92.5241 10.996C93.2761 10.692 94.1241 10.54 95.0681 10.54Z" fill="#FF9843"/>
</svg>
