<svg width="19" height="19" viewBox="0 0 19 19" fill="none" xmlns="http://www.w3.org/2000/svg">
<path d="M17.521 6.60428C17.1694 6.13149 16.7348 5.75236 16.2467 5.49258C15.7586 5.2328 15.2283 5.09843 14.6918 5.09857H11.7006L11.9525 3.31288C12.0417 2.68405 11.9341 2.03878 11.6495 1.49477C11.3648 0.950758 10.9221 0.54425 10.402 0.349389C9.88183 0.154529 9.319 0.184302 8.81612 0.433278C8.31325 0.682255 7.90383 1.13384 7.66255 1.70568L6.2273 5.09857H4.19367C3.19965 5.09995 2.24668 5.56129 1.5438 6.38137C0.840927 7.20145 0.445527 8.31333 0.444336 9.4731L0.444336 13.8476C0.445527 15.0074 0.840927 16.1193 1.5438 16.9394C2.24668 17.7594 3.19965 18.2208 4.19367 18.2222H14.1669C15.0693 18.2179 15.9405 17.8357 16.6218 17.1453C17.3031 16.4549 17.7494 15.502 17.8795 14.4601L18.4081 10.0855C18.4826 9.46499 18.4419 8.83303 18.2889 8.23242C18.1358 7.63181 17.874 7.07657 17.521 6.60428ZM1.94407 13.8476V9.4731C1.94407 8.77698 2.18108 8.10937 2.60296 7.61714C3.02484 7.12491 3.59704 6.84838 4.19367 6.84838H5.6934V16.4724H4.19367C3.59704 16.4724 3.02484 16.1958 2.60296 15.7036C2.18108 15.2114 1.94407 14.5438 1.94407 13.8476ZM16.9196 9.83969L16.3902 14.2142C16.3128 14.8389 16.0458 15.4104 15.6378 15.8248C15.2298 16.2392 14.7078 16.469 14.1669 16.4724H7.19313V6.61565C7.2638 6.54382 7.3223 6.45717 7.3656 6.36018L9.00706 2.47997C9.06861 2.35042 9.15564 2.23977 9.26098 2.15709C9.36633 2.07442 9.48698 2.0221 9.61303 2.00442C9.73908 1.98674 9.86692 2.00421 9.98605 2.0554C10.1052 2.10659 10.2122 2.19003 10.2983 2.29886C10.372 2.39882 10.4259 2.51651 10.4561 2.64355C10.4863 2.77059 10.4921 2.90383 10.473 3.03379L10.0771 5.83349C10.0597 5.95858 10.0659 6.08659 10.0951 6.20865C10.1243 6.33071 10.1758 6.44392 10.2462 6.54044C10.3166 6.63695 10.4041 6.71448 10.5027 6.76765C10.6013 6.82082 10.7086 6.84836 10.8172 6.84838H14.6918C15.0138 6.84833 15.332 6.92893 15.625 7.08473C15.918 7.24053 16.179 7.46791 16.3902 7.75149C16.6014 8.03507 16.7579 8.36824 16.8493 8.72849C16.9406 9.08875 16.9646 9.46768 16.9196 9.83969Z" fill="black"/>
</svg>
