<svg width="218" height="246" viewBox="0 0 218 246" fill="none" xmlns="http://www.w3.org/2000/svg">
<g clip-path="url(#clip0_117_2787)">
<path d="M106.246 103.146H137.715C137.817 103.146 137.915 103.106 137.988 103.033C138.06 102.961 138.101 102.862 138.101 102.76C138.101 102.657 138.06 102.559 137.988 102.487C137.915 102.414 137.817 102.373 137.715 102.373H106.246C106.144 102.373 106.045 102.414 105.973 102.487C105.901 102.559 105.86 102.657 105.86 102.76C105.86 102.862 105.901 102.961 105.973 103.033C106.045 103.106 106.144 103.146 106.246 103.146Z" fill="#3F3D56"/>
<path d="M120.744 66.3565C120.049 66.71 119.519 67.3208 119.268 68.0588C119.016 68.7969 119.062 69.604 119.397 70.3084C119.467 70.4505 119.549 70.5866 119.641 70.7152L113.716 79.3137L117.02 83.8561L123.864 71.1994C124.367 70.7738 124.716 70.1936 124.855 69.5491C124.994 68.9047 124.915 68.2323 124.632 67.637C124.468 67.2998 124.239 66.9983 123.958 66.7496C123.677 66.501 123.35 66.3102 122.995 66.188C122.641 66.0658 122.266 66.0147 121.891 66.0375C121.517 66.0604 121.151 66.1568 120.814 66.3212C120.79 66.3327 120.767 66.3444 120.744 66.3565Z" fill="#FFB6B6"/>
<path d="M85.5941 68.0897C84.9499 68.458 84.3925 68.9608 83.9599 69.5638C83.5273 70.1668 83.2296 70.8559 83.087 71.5843C82.9444 72.3127 82.9604 73.0632 83.1337 73.7849C83.307 74.5066 83.6337 75.1824 84.0915 75.7665L91.4461 85.1503L107.73 97.1904C107.73 97.1904 119.199 87.1686 119.291 84.0536C119.382 80.9386 118.155 80.2789 119.382 80.9386C120.61 81.5984 121.727 81.1038 121.306 80.7556C120.885 80.4074 121.033 80.3688 121.289 79.7743C121.544 79.1798 122.442 76.3764 122.442 76.3764L117.97 72.725C117.97 72.725 113.796 75.2578 113.521 76.4488C113.246 77.6398 114.748 77.1085 113.246 77.6398C111.744 78.171 109.522 76.6214 111.302 78.3033C113.081 79.9852 113.025 80.7946 111.551 80.9211C110.077 81.0476 107.75 85.1519 107.75 85.1519L91.8449 68.9553C91.045 68.1406 89.9978 67.6139 88.8669 67.4573C87.7361 67.3007 86.5853 67.5231 85.5941 68.0897Z" fill="#E6E6E6"/>
<path d="M83.9959 245.624H35.1594C34.1543 245.623 33.1907 245.223 32.4799 244.512C31.7692 243.801 31.3694 242.837 31.3682 241.832V200.713C31.3694 199.707 31.7692 198.744 32.4799 198.033C33.1907 197.322 34.1543 196.922 35.1594 196.921H83.9959C85.0011 196.922 85.9647 197.322 86.6754 198.033C87.3862 198.744 87.786 199.707 87.7872 200.713V241.832C87.786 242.837 87.3862 243.801 86.6754 244.512C85.9647 245.223 85.0011 245.623 83.9959 245.624Z" fill="#F2F2F2"/>
<path d="M9.33915 188.526L9.31982 192.784L26.0975 194.887L26.1258 188.602L9.33915 188.526Z" fill="#FFB6B6"/>
<path d="M11.3164 187.424L11.7085 194.537L8.66246 194.523L3.96354 201.263C3.7315 201.596 3.39916 201.846 3.01501 201.977C2.63086 202.107 2.21503 202.112 1.82824 201.989C1.44144 201.867 1.10394 201.624 0.864989 201.296C0.626039 200.968 0.498157 200.572 0.50002 200.166L0.538442 191.7L3.55809 190.254L0.547652 189.671L0.562134 186.478L11.3164 187.424Z" fill="#2F2E41"/>
<path d="M149.451 99.7737C139.148 97.2084 130.303 92.1659 123.387 83.8418C122.86 83.5187 122.483 82.9997 122.338 82.3985C122.193 81.7974 122.292 81.1633 122.614 80.6352L134.642 60.9458C134.965 60.4185 135.484 60.0409 136.085 59.8958C136.686 59.7507 137.32 59.8499 137.848 60.1718L163.912 76.1037C164.439 76.4268 164.817 76.9458 164.962 77.5469C165.107 78.1481 165.008 78.7822 164.686 79.3103L152.657 98.9997C152.334 99.527 151.815 99.9046 151.214 100.05C150.613 100.195 149.979 100.096 149.451 99.7737Z" fill="#E6E6E6"/>
<path d="M142.502 93.4512C137.077 92.8588 131.439 88.522 125.745 83.2087C125.252 82.9062 124.898 82.4201 124.762 81.8571C124.626 81.2941 124.719 80.7002 125.021 80.2057L135.359 63.2843C135.661 62.7904 136.147 62.4367 136.71 62.3008C137.273 62.1649 137.866 62.2579 138.361 62.5593L161.554 76.7365C162.048 77.0391 162.402 77.5252 162.537 78.0882C162.673 78.6512 162.58 79.2451 162.279 79.7397L155.875 90.2221C154.528 92.4219 152.363 93.9973 149.856 94.6026C147.349 95.208 144.704 94.7939 142.502 93.4512Z" fill="white"/>
<path d="M147.258 73.1191L139.234 86.3357C139.171 86.4399 139.088 86.5306 138.99 86.6026C138.891 86.6747 138.78 86.7267 138.661 86.7556C138.543 86.7845 138.42 86.7899 138.3 86.7713C138.179 86.7527 138.064 86.7106 137.96 86.6474C137.856 86.5841 137.765 86.5009 137.693 86.4026C137.621 86.3043 137.569 86.1928 137.54 86.0744C137.511 85.9561 137.506 85.8331 137.525 85.7127C137.543 85.5923 137.585 85.4767 137.649 85.3726L145.673 72.156C145.736 72.0518 145.819 71.9611 145.917 71.8891C146.016 71.817 146.127 71.7651 146.245 71.7361C146.364 71.7072 146.487 71.7019 146.607 71.7204C146.727 71.739 146.843 71.7811 146.947 71.8444C147.051 71.9076 147.142 71.9908 147.214 72.0891C147.286 72.1874 147.338 72.2989 147.367 72.4173C147.396 72.5357 147.401 72.6586 147.382 72.779C147.364 72.8994 147.322 73.015 147.258 73.1191Z" fill="#F9A826"/>
<path d="M150.744 75.2363L142.719 88.4529C142.591 88.6628 142.386 88.8134 142.147 88.8716C141.908 88.9297 141.656 88.8907 141.446 88.7631C141.236 88.6355 141.085 88.4298 141.026 88.191C140.968 87.9522 141.007 87.7 141.134 87.4897L149.158 74.2731C149.286 74.0632 149.492 73.9126 149.731 73.8545C149.969 73.7963 150.221 73.8353 150.432 73.9629C150.642 74.0905 150.792 74.2963 150.851 74.535C150.909 74.7738 150.871 75.026 150.744 75.2363Z" fill="#F9A826"/>
<path d="M96.482 117.488C96.482 117.488 94.7894 143.594 93.3905 147.637C91.8719 152.013 92.0689 158.654 89.789 165.012C89.0857 166.976 88.3669 168.966 87.6481 170.942C87.5052 171.34 87.3583 171.738 87.2153 172.136C86.2763 174.707 85.3373 177.234 84.4408 179.623C84.3132 179.96 84.1857 180.292 84.0621 180.62C84.0582 180.628 84.0582 180.636 84.0543 180.64C81.0943 188.429 78.5593 194.555 77.5468 195.568C76.4648 196.65 69.1535 197.099 60.1187 197.222C43.3746 197.446 20.7065 196.561 20.7065 196.561L20.7413 187.451C20.7413 187.451 20.9423 187.393 21.3171 187.281C22.0088 187.08 23.2956 186.705 24.9766 186.206C31.9981 184.134 45.9135 179.963 52.2858 177.66C54.0865 177.01 55.2845 176.508 55.555 176.241C57.1393 174.695 57.8388 176.241 58.8435 177.787C59.8482 179.333 60.1574 177.787 61.4712 176.651C62.7851 175.514 65.7452 177.076 65.7452 177.076C65.7452 177.076 65.7722 176.048 65.8148 174.409C65.8766 171.989 65.9693 168.224 66.0621 164.456C66.0582 164.452 66.0582 164.452 66.0621 164.452C66.0968 163.033 66.1316 161.615 66.1625 160.269C66.1896 159.226 66.2128 158.225 66.236 157.297C66.2978 154.518 66.3403 152.415 66.3403 151.889C66.3403 150.173 66.3403 151.507 67.6967 150.471C67.8993 150.312 68.0916 150.14 68.2725 149.957C68.562 149.697 68.8284 149.412 69.0685 149.106C69.169 148.89 68.5468 149.184 67.7392 149.021C67.3014 148.932 66.8964 148.725 66.5683 148.422C64.8641 146.888 66.7035 142.18 66.7035 142.18C62.8315 134.433 63.1097 128.079 64.9221 123.185C66.2762 119.67 68.427 116.517 71.2055 113.974C72.2636 112.968 73.4153 112.064 74.6447 111.276L74.7645 110.638L76.0745 103.553C78.9406 101.96 82.2525 101.358 85.4957 101.841C87.9235 102.194 90.2739 102.956 92.4477 104.094C94.2229 104.987 95.8892 106.082 97.4133 107.357L96.482 117.488Z" fill="#2F2E41"/>
<path d="M60.877 235.767L65.1161 236.161L68.6875 219.629L62.4312 219.048L60.877 235.767Z" fill="#FFB6B6"/>
<path d="M73.0874 242.246L66.7886 236.97L67.0707 233.935L65.6061 233.885L61.0655 233.738L59.9526 233.699L58.063 244.333L61.2433 244.627L62.0896 241.678L63.2605 244.816L71.6886 245.601C72.0926 245.638 72.498 245.546 72.8457 245.337C73.1934 245.127 73.4652 244.812 73.6213 244.438C73.7775 244.063 73.8099 243.649 73.7139 243.254C73.6179 242.86 73.3984 242.507 73.0874 242.246Z" fill="#2F2E41"/>
<path d="M84.4409 179.623C82.8295 188.405 76.0012 208.988 71.8741 221.037C69.9922 226.541 68.6783 230.267 68.6783 230.267L66.5336 229.591L62.9166 228.447L61.595 228.029L59.9952 227.523C59.9952 227.523 60.37 207.724 60.1188 197.222C60.0338 193.836 59.887 191.416 59.6435 190.937C58.6388 188.966 60.3198 188.757 62.0935 188.258C63.8711 187.76 62.4838 187.01 61.7921 185.41C61.3245 184.343 62.2442 182.924 62.8973 182.112C63.0772 181.884 63.2694 181.666 63.4731 181.459C63.4731 181.459 58.9518 179.921 53.8393 178.185C53.8355 178.189 53.8355 178.185 53.8355 178.185C53.3215 178.011 52.8037 177.837 52.2859 177.66C54.0867 177.01 55.2846 176.508 55.5551 176.241C57.1395 174.695 57.8389 176.241 58.8436 177.787C59.8484 179.333 60.1575 177.787 61.4714 176.651C62.7852 175.514 65.7453 177.076 65.7453 177.076C65.7453 177.076 65.7724 176.048 65.8149 174.409C65.8767 171.989 65.9694 168.224 66.0622 164.456C66.0583 164.452 66.0583 164.452 66.0622 164.452C66.097 163.033 66.1317 161.615 66.1627 160.269C68.887 162.357 71.5302 164.405 73.9261 166.299C73.9299 166.303 73.9377 166.307 73.9377 166.315C79.6994 170.868 84.0236 174.525 84.6302 175.684C84.9046 176.21 84.8118 177.606 84.4409 179.623Z" fill="#2F2E41"/>
<path d="M68.6206 113.186C66.809 112.633 64.9043 114.5 64.9594 116.393C65.0146 118.287 66.5263 119.89 68.2678 120.635C70.0093 121.38 97.6154 126.03 99.6582 124.98C101.701 123.929 103.185 121.409 102.283 119.296C101.702 117.935 100.45 111.608 99.3391 110.631C95.5999 107.342 99.0314 103.052 101.34 98.6388C103.382 94.7356 107.785 91.75 107.742 87.3448C107.71 84.1786 105.316 81.5989 103.074 79.3633L95.9464 72.2556L89.18 65.5079C87.734 64.066 81.5309 63.3033 80.4203 63.9733C78.0992 65.3736 72.3561 88.7044 71.5355 90.8323C71.272 91.5155 72.9844 100.259 73.6824 100.48C75.6113 106.594 72.2192 107.774 68.5319 113.018" fill="#E6E6E6"/>
<path d="M123.996 77.8679C123.24 78.057 122.588 78.5339 122.177 79.197C121.767 79.8602 121.632 80.6572 121.8 81.4185C121.837 81.5728 121.886 81.7237 121.948 81.8697L114.251 88.9258L116.457 94.0921L125.955 83.2859C126.541 82.9837 127.01 82.496 127.29 81.8989C127.569 81.3019 127.644 80.6291 127.501 79.9855C127.416 79.6201 127.26 79.2749 127.042 78.9698C126.823 78.6647 126.547 78.4055 126.229 78.2071C125.911 78.0087 125.556 77.875 125.186 77.8136C124.816 77.7522 124.438 77.7642 124.073 77.8491C124.047 77.855 124.022 77.8613 123.996 77.8679Z" fill="#FFB6B6"/>
<path d="M89.3492 71.6974C88.639 71.9123 87.9834 72.2777 87.4269 72.7687C86.8705 73.2597 86.4263 73.8649 86.1246 74.5429C85.8228 75.221 85.6706 75.9561 85.6783 76.6983C85.6859 77.4405 85.8533 78.1723 86.1689 78.844L91.2402 89.6347L104.421 105.011C104.421 105.011 117.839 97.8078 118.625 94.7922C119.411 91.7766 118.362 90.8591 119.411 91.7766C120.46 92.6941 121.659 92.4618 121.327 92.0283C120.994 91.5947 121.147 91.5903 121.529 91.068C121.911 90.5456 123.413 88.0139 123.413 88.0139L119.87 83.455C119.87 83.455 115.235 84.9903 114.701 86.0896C114.167 87.189 115.75 87.0071 114.167 87.189C112.584 87.3709 110.765 85.3638 112.123 87.401C113.482 89.4382 113.246 90.2145 111.781 90.0082C110.316 89.8019 107.131 93.282 107.131 93.282L95.2484 73.9388C94.6507 72.9659 93.7478 72.2183 92.6806 71.8128C91.6133 71.4073 90.4419 71.3667 89.3492 71.6974Z" fill="#E6E6E6"/>
<path d="M84.9286 61.0539C91.3094 61.0539 96.482 55.8799 96.482 49.4974C96.482 43.1149 91.3094 37.9409 84.9286 37.9409C78.5479 37.9409 73.3752 43.1149 73.3752 49.4974C73.3752 55.8799 78.5479 61.0539 84.9286 61.0539Z" fill="#FFB6B6"/>
<path d="M76.001 40.9537C76.1199 39.9137 76.8325 38.6283 77.3282 37.7063C77.8239 36.7844 78.7812 36.0315 79.8257 36.0957C80.2525 36.1452 80.6611 36.2972 81.0164 36.5388C81.3718 36.7804 81.6635 37.1044 81.8666 37.4831C82.2654 38.2456 82.4826 39.09 82.5015 39.9503C82.6107 41.8698 82.2902 43.7895 81.5635 45.5695C80.8368 47.3494 79.7222 48.9447 78.3009 50.239C77.4912 50.9655 76.5167 51.6119 75.4293 51.6365C74.9355 51.6247 74.449 51.5142 73.9985 51.3116C73.548 51.1089 73.1425 50.8181 72.806 50.4563C71.0459 48.6931 70.7798 45.7944 71.7198 43.4869C72.6598 41.1794 73.0793 40.2815 75.2281 39.0211" fill="#2F2E41"/>
<path d="M92.2312 57.5747C92.038 58.6029 93.8155 63.4926 93.2475 64.3739C93.2475 64.3739 87.3655 66.4174 85.1164 66.5643C82.3689 66.7421 80.159 65.6147 77.5892 63.9178C77.5427 62.9972 77.2763 62.1012 76.8125 61.3048C76.8514 61.9217 76.7261 62.5379 76.4493 63.0906C72.6854 60.0911 71.2726 51.8427 74.9939 48.0122L78.8583 39.1219C77.699 39.5084 81.1986 33.5361 84.889 37.8614C89.5068 33.1573 98.4527 39.9294 99.5735 45.9787C98.4949 44.6133 97.9332 44.7742 97.6566 45.7159C97.3387 44.9239 96.8351 44.2199 96.1882 43.6633C96.51 44.2992 96.6743 45.0032 96.6674 45.7158C89.3832 46.1681 90.7389 51.0836 96.7094 58.4471C94.5015 57.0723 95.9914 62.9965 94.8125 64.4125C94.7546 63.4229 92.4398 58.5372 92.2312 57.5747Z" fill="#2F2E41"/>
<path d="M167.418 177.401H198.887C198.989 177.401 199.087 177.36 199.16 177.287C199.232 177.215 199.273 177.117 199.273 177.014C199.273 176.912 199.232 176.813 199.16 176.741C199.087 176.668 198.989 176.628 198.887 176.628H167.418C167.316 176.628 167.217 176.668 167.145 176.741C167.072 176.813 167.032 176.912 167.032 177.014C167.032 177.117 167.072 177.215 167.145 177.287C167.217 177.36 167.316 177.401 167.418 177.401Z" fill="#3F3D56"/>
<path d="M153.893 46.3652H185.361C185.464 46.3652 185.562 46.3245 185.635 46.252C185.707 46.1795 185.748 46.0812 185.748 45.9787C185.748 45.8762 185.707 45.7779 185.635 45.7054C185.562 45.6329 185.464 45.5922 185.361 45.5922H153.893C153.791 45.5922 153.692 45.6329 153.62 45.7054C153.547 45.7779 153.507 45.8762 153.507 45.9787C153.507 46.0812 153.547 46.1795 153.62 46.252C153.692 46.3245 153.791 46.3652 153.893 46.3652Z" fill="#3F3D56"/>
<path d="M178.47 39.6113C172.09 31.1225 168.402 21.6299 168.281 10.8076C168.076 10.2243 168.11 9.58336 168.376 9.02527C168.642 8.46717 169.119 8.03753 169.702 7.83059L191.449 0.133711C192.032 -0.0719025 192.673 -0.0377797 193.231 0.228599C193.789 0.494978 194.218 0.971857 194.425 1.55461L204.614 30.3584C204.82 30.9416 204.786 31.5825 204.519 32.1406C204.253 32.6987 203.776 33.1284 203.194 33.3353L181.446 41.0322C180.863 41.2378 180.222 41.2037 179.664 40.9373C179.106 40.6709 178.677 40.194 178.47 39.6113Z" fill="#E6E6E6"/>
<path d="M177.061 30.3209C173.223 26.44 171.581 19.5181 170.51 11.8033C170.318 11.2571 170.35 10.6568 170.599 10.1341C170.849 9.61143 171.295 9.20906 171.841 9.01527L190.531 2.40045C191.077 2.20787 191.677 2.2398 192.2 2.48927C192.722 2.73873 193.124 3.18533 193.318 3.73111L202.385 29.3625C202.577 29.9088 202.545 30.5091 202.296 31.0317C202.047 31.5544 201.6 31.9568 201.054 32.1506L189.476 36.2483C187.044 37.1061 184.371 36.9638 182.043 35.8526C179.716 34.7413 177.924 32.752 177.061 30.3209Z" fill="white"/>
<path d="M193.568 17.5389L179.009 22.7371C178.778 22.8199 178.523 22.8071 178.3 22.7018C178.078 22.5964 177.907 22.407 177.824 22.1753C177.741 21.9435 177.754 21.6884 177.859 21.4661C177.965 21.2437 178.154 21.0723 178.386 20.9896L192.945 15.7914C193.176 15.7089 193.431 15.7218 193.653 15.8273C193.875 15.9327 194.047 16.122 194.129 16.3535C194.212 16.5851 194.199 16.8401 194.094 17.0623C193.989 17.2846 193.8 17.456 193.568 17.5389Z" fill="#F9A826"/>
<path d="M180.502 16.8017L177.299 17.9453C177.185 17.9864 177.063 18.0045 176.941 17.9985C176.819 17.9926 176.7 17.9626 176.59 17.9105C176.48 17.8583 176.381 17.785 176.299 17.6946C176.217 17.6042 176.154 17.4986 176.113 17.3838C176.072 17.2689 176.054 17.1472 176.06 17.0254C176.066 16.9036 176.096 16.7843 176.149 16.6741C176.201 16.564 176.274 16.4652 176.365 16.3835C176.455 16.3018 176.561 16.2386 176.676 16.1978L179.879 15.0542C180.11 14.9717 180.365 14.9847 180.587 15.0901C180.809 15.1955 180.981 15.3848 181.063 15.6164C181.146 15.848 181.133 16.1029 181.028 16.3251C180.923 16.5474 180.734 16.7188 180.502 16.8017Z" fill="#F9A826"/>
<path d="M196.31 25.2216L181.751 30.4199C181.519 30.5023 181.264 30.4894 181.042 30.384C180.82 30.2786 180.649 30.0893 180.566 29.8577C180.484 29.6261 180.496 29.3712 180.602 29.1489C180.707 28.9266 180.896 28.7552 181.127 28.6723L195.686 23.4741C195.918 23.3917 196.173 23.4046 196.395 23.51C196.617 23.6154 196.788 23.8047 196.871 24.0363C196.953 24.2679 196.941 24.5228 196.836 24.7451C196.73 24.9673 196.541 25.1387 196.31 25.2216Z" fill="#F9A826"/>
<path d="M194.939 21.3802L180.38 26.5785C180.148 26.6612 179.893 26.6485 179.671 26.5431C179.449 26.4377 179.277 26.2483 179.195 26.0166C179.112 25.7848 179.125 25.5297 179.23 25.3074C179.335 25.085 179.525 24.9136 179.756 24.8309L194.315 19.6327C194.43 19.5916 194.552 19.5735 194.674 19.5795C194.795 19.5855 194.915 19.6154 195.025 19.6675C195.135 19.7197 195.234 19.7931 195.316 19.8834C195.397 19.9738 195.461 20.0794 195.502 20.1942C195.543 20.3091 195.561 20.4308 195.554 20.5526C195.548 20.6744 195.518 20.7937 195.466 20.9039C195.414 21.014 195.34 21.1128 195.25 21.1945C195.159 21.2763 195.054 21.3394 194.939 21.3802Z" fill="#F9A826"/>
<path d="M169.518 13.8962C171.652 13.8962 173.382 12.1657 173.382 10.0309C173.382 7.8961 171.652 6.16553 169.518 6.16553C167.383 6.16553 165.653 7.8961 165.653 10.0309C165.653 12.1657 167.383 13.8962 169.518 13.8962Z" fill="#F9A826"/>
<path d="M191.222 170.26C184.842 161.772 181.154 152.279 181.033 141.457C180.828 140.873 180.862 140.232 181.128 139.674C181.395 139.116 181.871 138.687 182.454 138.48L204.201 130.783C204.784 130.577 205.425 130.611 205.983 130.878C206.541 131.144 206.971 131.621 207.178 132.204L217.366 161.007C217.572 161.591 217.538 162.232 217.271 162.79C217.005 163.348 216.528 163.777 215.946 163.984L194.198 171.681C193.615 171.887 192.975 171.853 192.417 171.586C191.859 171.32 191.429 170.843 191.222 170.26Z" fill="#E6E6E6"/>
<path d="M189.813 160.97C185.976 157.089 184.333 150.167 183.263 142.452C183.07 141.906 183.102 141.306 183.351 140.783C183.601 140.26 184.047 139.858 184.593 139.664L203.283 133.05C203.829 132.857 204.429 132.889 204.952 133.138C205.474 133.388 205.877 133.834 206.07 134.38L215.137 160.012C215.33 160.558 215.298 161.158 215.048 161.681C214.799 162.203 214.352 162.606 213.807 162.8L202.228 166.897C199.796 167.755 197.123 167.613 194.795 166.502C192.468 165.39 190.676 163.401 189.813 160.97Z" fill="white"/>
<path d="M206.321 148.188L191.762 153.386C191.53 153.469 191.275 153.456 191.053 153.351C190.83 153.245 190.659 153.056 190.576 152.824C190.493 152.592 190.506 152.337 190.612 152.115C190.717 151.893 190.906 151.721 191.138 151.639L205.697 146.44C205.929 146.358 206.183 146.371 206.406 146.476C206.628 146.582 206.799 146.771 206.881 147.002C206.964 147.234 206.951 147.489 206.846 147.711C206.741 147.934 206.552 148.105 206.321 148.188Z" fill="#F9A826"/>
<path d="M193.254 147.451L190.051 148.594C189.82 148.677 189.565 148.664 189.343 148.558C189.121 148.453 188.95 148.264 188.867 148.032C188.784 147.8 188.797 147.546 188.902 147.323C189.007 147.101 189.196 146.93 189.428 146.847L192.631 145.703C192.746 145.662 192.867 145.644 192.989 145.65C193.111 145.656 193.23 145.686 193.34 145.738C193.45 145.79 193.549 145.863 193.631 145.954C193.713 146.044 193.776 146.15 193.817 146.265C193.858 146.38 193.876 146.501 193.87 146.623C193.864 146.745 193.834 146.864 193.781 146.974C193.729 147.084 193.656 147.183 193.565 147.265C193.475 147.347 193.369 147.41 193.254 147.451Z" fill="#F9A826"/>
<path d="M207.691 152.029L193.132 157.228C192.901 157.31 192.646 157.298 192.423 157.192C192.201 157.087 192.03 156.897 191.947 156.666C191.864 156.434 191.877 156.179 191.982 155.956C192.088 155.734 192.277 155.563 192.509 155.48L207.068 150.282C207.183 150.241 207.304 150.223 207.426 150.229C207.548 150.235 207.667 150.264 207.777 150.317C207.887 150.369 207.986 150.442 208.068 150.532C208.15 150.623 208.213 150.728 208.254 150.843C208.295 150.958 208.313 151.08 208.307 151.202C208.301 151.323 208.271 151.443 208.218 151.553C208.166 151.663 208.093 151.762 208.002 151.844C207.912 151.925 207.806 151.988 207.691 152.029Z" fill="#F9A826"/>
<path d="M183.043 144.159C185.177 144.159 186.907 142.428 186.907 140.293C186.907 138.159 185.177 136.428 183.043 136.428C180.909 136.428 179.178 138.159 179.178 140.293C179.178 142.428 180.909 144.159 183.043 144.159Z" fill="#F9A826"/>
<path d="M121.871 70.6774C124.005 70.6774 125.735 68.9468 125.735 66.812C125.735 64.6772 124.005 62.9467 121.871 62.9467C119.737 62.9467 118.007 64.6772 118.007 66.812C118.007 68.9468 119.737 70.6774 121.871 70.6774Z" fill="#F9A826"/>
<path d="M81.7193 48.1073C81.6261 48.1072 81.5361 48.0735 81.4658 48.0122C81.3956 47.951 81.3498 47.8664 81.3369 47.7741C81.3241 47.6817 81.345 47.5879 81.3959 47.5098C81.4468 47.4316 81.5242 47.3746 81.6138 47.349C81.7151 47.1818 81.6736 46.478 81.6402 45.9093C81.5145 43.7741 81.3042 40.2006 84.7726 37.7883C84.8568 37.7298 84.9607 37.7071 85.0615 37.7252C85.1624 37.7433 85.2519 37.8008 85.3104 37.8849C85.3689 37.9691 85.3916 38.073 85.3735 38.1739C85.3553 38.2748 85.2979 38.3643 85.2138 38.4228C82.1012 40.5878 82.288 43.763 82.4118 45.8638C82.4823 47.065 82.5335 47.9326 81.8051 48.0977C81.777 48.1042 81.7482 48.1074 81.7193 48.1073Z" fill="#F9A826"/>
<path d="M6.01099 245.54C6.01081 245.601 6.02258 245.66 6.04562 245.716C6.06867 245.772 6.10254 245.823 6.14527 245.866C6.18801 245.908 6.23878 245.942 6.29466 245.965C6.35053 245.988 6.41041 246 6.47086 246H104.35C104.472 246 104.589 245.952 104.675 245.865C104.762 245.779 104.81 245.662 104.81 245.54C104.81 245.418 104.762 245.301 104.675 245.215C104.589 245.129 104.472 245.08 104.35 245.08H6.47086C6.41041 245.08 6.35054 245.092 6.29467 245.115C6.23879 245.138 6.18803 245.172 6.14529 245.214C6.10255 245.257 6.06867 245.308 6.04562 245.364C6.02258 245.42 6.01081 245.48 6.01099 245.54Z" fill="#CCCCCC"/>
<path d="M81.8995 39.6592C79.541 38.6801 77.0288 38.1232 74.4775 38.0139C72.4539 37.9281 70.0395 38.3795 69.2169 40.2308C68.7179 41.354 68.9837 42.6704 69.4402 43.8115C69.8967 44.9527 70.5374 46.0308 70.8017 47.2311C71.3712 49.8169 70.0271 52.5572 67.9643 54.2165C65.9015 55.8758 63.2394 56.608 60.6133 56.9409C62.5863 57.6731 64.5895 58.4123 66.6866 58.5879C68.7837 58.7636 71.0233 58.3076 72.5891 56.9011C74.2834 55.3792 74.9345 53.0153 75.2227 50.7557C75.5109 48.4961 75.5259 46.169 76.2916 44.0237C77.0573 41.8784 78.8163 39.8805 81.0857 39.6903" fill="#2F2E41"/>
</g>
<defs>
<clipPath id="clip0_117_2787">
<rect width="217" height="246" fill="white" transform="translate(0.5)"/>
</clipPath>
</defs>
</svg>
