<svg width="100" height="100" viewBox="0 0 100 100" fill="none" xmlns="http://www.w3.org/2000/svg">
<circle cx="50" cy="50" r="50" fill="#FF9843"/>
<path d="M44.175 25.2002C39.3125 25.2002 34.4502 27.05 30.7502 30.75C23.3502 38.15 23.3502 50.1996 30.7502 57.5996C34.4502 61.2996 39.3004 63.1504 44.2004 63.1504C49.1004 63.1504 53.9506 61.2996 57.6506 57.5996C65.0006 50.1996 64.9998 38.15 57.5998 30.75C53.8998 27.05 49.0375 25.2002 44.175 25.2002ZM44.1506 28.1504C48.2506 28.1504 52.3504 29.6996 55.4504 32.8496C61.7004 39.0996 61.7002 49.25 55.5002 55.5C49.2502 61.75 39.0998 61.75 32.8498 55.5C26.5998 49.25 26.5998 39.0996 32.8498 32.8496C35.9498 29.7496 40.0506 28.1504 44.1506 28.1504ZM44.1506 31.1504C40.7006 31.1504 37.4502 32.5 35.0002 35C32.6502 37.35 31.3504 40.4002 31.2004 43.7002C31.1504 44.5502 31.8006 45.2 32.6506 45.25H32.7004C33.5004 45.25 34.1504 44.5998 34.2004 43.7998C34.3004 41.2498 35.3498 38.8996 37.0998 37.0996C38.9998 35.1996 41.5006 34.1504 44.1506 34.1504C45.0006 34.1504 45.6506 33.5004 45.6506 32.6504C45.6506 31.8004 45.0006 31.1504 44.1506 31.1504ZM35.5002 50C34.6718 50 34.0002 50.6716 34.0002 51.5C34.0002 52.3284 34.6718 53 35.5002 53C36.3286 53 37.0002 52.3284 37.0002 51.5C37.0002 50.6716 36.3286 50 35.5002 50ZM59.6818 58.25C59.3006 58.25 58.9256 58.4002 58.6506 58.7002C58.0506 59.3002 58.0506 60.2498 58.6506 60.7998L59.9006 62.0498C59.6006 62.6498 59.4504 63.3 59.4504 64C59.4504 65.2 59.9002 66.3502 60.7502 67.2002L67.1506 73.5C68.0506 74.4 69.1998 74.8496 70.3498 74.8496C71.4998 74.8496 72.65 74.3998 73.55 73.5498C75.3 71.7998 75.3 68.9502 73.55 67.2002L67.1506 60.7998C66.3006 59.9498 65.1504 59.5 63.9504 59.5C63.2504 59.5 62.6002 59.6502 62.0002 59.9502L60.7502 58.7002C60.4502 58.4002 60.0631 58.25 59.6818 58.25ZM63.9504 62.4502C64.3504 62.4502 64.7502 62.6004 65.0002 62.9004L71.3498 69.25C71.9498 69.85 71.9498 70.7996 71.3498 71.3496C70.7498 71.9496 69.8002 71.9496 69.2502 71.3496L62.9006 65.0498C62.6006 64.7498 62.4504 64.3502 62.4504 63.9502C62.4504 63.5502 62.6006 63.1504 62.9006 62.9004C63.2006 62.6004 63.5504 62.4502 63.9504 62.4502Z" fill="white"/>
</svg>
