<svg width="472" height="200" viewBox="0 0 472 200" fill="none" xmlns="http://www.w3.org/2000/svg">
<path d="M25.856 102.616H12.512L10.304 109H3.248L15.296 75.448H23.12L35.168 109H28.064L25.856 102.616ZM24.032 97.24L19.184 83.224L14.336 97.24H24.032ZM65.1114 82.408L48.6474 121.576H41.4954L47.2554 108.328L36.5994 82.408H44.1354L50.9994 100.984L57.9594 82.408H65.1114ZM80.5419 109.432C77.9819 109.432 75.6779 108.872 73.6299 107.752C71.5819 106.6 69.9659 104.984 68.7819 102.904C67.6299 100.824 67.0539 98.424 67.0539 95.704C67.0539 92.984 67.6459 90.584 68.8299 88.504C70.0459 86.424 71.6939 84.824 73.7739 83.704C75.8539 82.552 78.1739 81.976 80.7339 81.976C83.2939 81.976 85.6139 82.552 87.6939 83.704C89.7739 84.824 91.4059 86.424 92.5899 88.504C93.8059 90.584 94.4139 92.984 94.4139 95.704C94.4139 98.424 93.7899 100.824 92.5419 102.904C91.3259 104.984 89.6619 106.6 87.5499 107.752C85.4699 108.872 83.1339 109.432 80.5419 109.432ZM80.5419 103.576C81.7579 103.576 82.8939 103.288 83.9499 102.712C85.0379 102.104 85.9019 101.208 86.5419 100.024C87.1819 98.84 87.5019 97.4 87.5019 95.704C87.5019 93.176 86.8299 91.24 85.4859 89.896C84.1739 88.52 82.5579 87.832 80.6379 87.832C78.7179 87.832 77.1019 88.52 75.7899 89.896C74.5099 91.24 73.8699 93.176 73.8699 95.704C73.8699 98.232 74.4939 100.184 75.7419 101.56C77.0219 102.904 78.6219 103.576 80.5419 103.576ZM143.805 82.024C147.069 82.024 149.693 83.032 151.677 85.048C153.693 87.032 154.701 89.816 154.701 93.4V109H147.981V94.312C147.981 92.232 147.453 90.648 146.397 89.56C145.341 88.44 143.901 87.88 142.077 87.88C140.253 87.88 138.797 88.44 137.709 89.56C136.653 90.648 136.125 92.232 136.125 94.312V109H129.405V94.312C129.405 92.232 128.877 90.648 127.821 89.56C126.765 88.44 125.325 87.88 123.501 87.88C121.645 87.88 120.173 88.44 119.085 89.56C118.029 90.648 117.501 92.232 117.501 94.312V109H110.781V82.408H117.501V85.624C118.365 84.504 119.469 83.624 120.813 82.984C122.189 82.344 123.693 82.024 125.325 82.024C127.405 82.024 129.261 82.472 130.893 83.368C132.525 84.232 133.789 85.48 134.685 87.112C135.549 85.576 136.797 84.344 138.429 83.416C140.093 82.488 141.885 82.024 143.805 82.024ZM186.182 82.408V109H179.414V105.64C178.55 106.792 177.414 107.704 176.006 108.376C174.63 109.016 173.126 109.336 171.494 109.336C169.414 109.336 167.574 108.904 165.974 108.04C164.374 107.144 163.11 105.848 162.182 104.152C161.286 102.424 160.838 100.376 160.838 98.008V82.408H167.558V97.048C167.558 99.16 168.086 100.792 169.142 101.944C170.198 103.064 171.638 103.624 173.462 103.624C175.318 103.624 176.774 103.064 177.83 101.944C178.886 100.792 179.414 99.16 179.414 97.048V82.408H186.182ZM199.532 73.48V109H192.812V73.48H199.532ZM204.443 95.608C204.443 92.92 204.971 90.536 206.027 88.456C207.115 86.376 208.571 84.776 210.395 83.656C212.251 82.536 214.315 81.976 216.587 81.976C218.571 81.976 220.299 82.376 221.771 83.176C223.275 83.976 224.475 84.984 225.371 86.2V82.408H232.139V109H225.371V105.112C224.507 106.36 223.307 107.4 221.771 108.232C220.267 109.032 218.523 109.432 216.539 109.432C214.299 109.432 212.251 108.856 210.395 107.704C208.571 106.552 207.115 104.936 206.027 102.856C204.971 100.744 204.443 98.328 204.443 95.608ZM225.371 95.704C225.371 94.072 225.051 92.68 224.411 91.528C223.771 90.344 222.907 89.448 221.819 88.84C220.731 88.2 219.563 87.88 218.315 87.88C217.067 87.88 215.915 88.184 214.859 88.792C213.803 89.4 212.939 90.296 212.267 91.48C211.627 92.632 211.307 94.008 211.307 95.608C211.307 97.208 211.627 98.616 212.267 99.832C212.939 101.016 213.803 101.928 214.859 102.568C215.947 103.208 217.099 103.528 218.315 103.528C219.563 103.528 220.731 103.224 221.819 102.616C222.907 101.976 223.771 101.08 224.411 99.928C225.051 98.744 225.371 97.336 225.371 95.704ZM242.111 79.24C240.927 79.24 239.935 78.872 239.135 78.136C238.367 77.368 237.983 76.424 237.983 75.304C237.983 74.184 238.367 73.256 239.135 72.52C239.935 71.752 240.927 71.368 242.111 71.368C243.295 71.368 244.271 71.752 245.039 72.52C245.839 73.256 246.239 74.184 246.239 75.304C246.239 76.424 245.839 77.368 245.039 78.136C244.271 78.872 243.295 79.24 242.111 79.24ZM245.423 82.408V109H238.703V82.408H245.423ZM8.72 151.24C7.504 151.24 6.496 150.872 5.696 150.136C4.928 149.368 4.544 148.424 4.544 147.304C4.544 146.184 4.928 145.256 5.696 144.52C6.496 143.752 7.504 143.368 8.72 143.368C9.904 143.368 10.88 143.752 11.648 144.52C12.416 145.256 12.8 146.184 12.8 147.304C12.8 148.424 12.416 149.368 11.648 150.136C10.88 150.872 9.904 151.24 8.72 151.24ZM12.032 185.368C12.032 188.312 11.296 190.424 9.824 191.704C8.384 193.016 6.304 193.672 3.584 193.672H0.608V187.96H2.528C3.552 187.96 4.272 187.752 4.688 187.336C5.104 186.952 5.312 186.312 5.312 185.416V154.408H12.032V185.368ZM16.9434 167.608C16.9434 164.92 17.4714 162.536 18.5274 160.456C19.6154 158.376 21.0714 156.776 22.8954 155.656C24.7514 154.536 26.8154 153.976 29.0874 153.976C31.0714 153.976 32.7994 154.376 34.2714 155.176C35.7754 155.976 36.9754 156.984 37.8714 158.2V154.408H44.6394V181H37.8714V177.112C37.0074 178.36 35.8074 179.4 34.2714 180.232C32.7674 181.032 31.0234 181.432 29.0394 181.432C26.7994 181.432 24.7514 180.856 22.8954 179.704C21.0714 178.552 19.6154 176.936 18.5274 174.856C17.4714 172.744 16.9434 170.328 16.9434 167.608ZM37.8714 167.704C37.8714 166.072 37.5514 164.68 36.9114 163.528C36.2714 162.344 35.4074 161.448 34.3194 160.84C33.2314 160.2 32.0634 159.88 30.8154 159.88C29.5674 159.88 28.4154 160.184 27.3594 160.792C26.3034 161.4 25.4394 162.296 24.7674 163.48C24.1274 164.632 23.8074 166.008 23.8074 167.608C23.8074 169.208 24.1274 170.616 24.7674 171.832C25.4394 173.016 26.3034 173.928 27.3594 174.568C28.4474 175.208 29.5994 175.528 30.8154 175.528C32.0634 175.528 33.2314 175.224 34.3194 174.616C35.4074 173.976 36.2714 173.08 36.9114 171.928C37.5514 170.744 37.8714 169.336 37.8714 167.704ZM65.9386 154.024C69.1066 154.024 71.6666 155.032 73.6186 157.048C75.5706 159.032 76.5466 161.816 76.5466 165.4V181H69.8266V166.312C69.8266 164.2 69.2986 162.584 68.2426 161.464C67.1866 160.312 65.7466 159.736 63.9226 159.736C62.0666 159.736 60.5946 160.312 59.5066 161.464C58.4506 162.584 57.9226 164.2 57.9226 166.312V181H51.2026V154.408H57.9226V157.72C58.8186 156.568 59.9546 155.672 61.3306 155.032C62.7386 154.36 64.2746 154.024 65.9386 154.024ZM93.353 153.976C95.337 153.976 97.081 154.376 98.585 155.176C100.089 155.944 101.273 156.952 102.137 158.2V154.408H108.905V181.192C108.905 183.656 108.409 185.848 107.417 187.768C106.425 189.72 104.937 191.256 102.953 192.376C100.969 193.528 98.569 194.104 95.753 194.104C91.977 194.104 88.873 193.224 86.441 191.464C84.041 189.704 82.681 187.304 82.361 184.264H89.033C89.385 185.48 90.137 186.44 91.289 187.144C92.473 187.88 93.897 188.248 95.561 188.248C97.513 188.248 99.097 187.656 100.313 186.472C101.529 185.32 102.137 183.56 102.137 181.192V177.064C101.273 178.312 100.073 179.352 98.537 180.184C97.033 181.016 95.305 181.432 93.353 181.432C91.113 181.432 89.065 180.856 87.209 179.704C85.353 178.552 83.881 176.936 82.793 174.856C81.737 172.744 81.209 170.328 81.209 167.608C81.209 164.92 81.737 162.536 82.793 160.456C83.881 158.376 85.337 156.776 87.161 155.656C89.017 154.536 91.081 153.976 93.353 153.976ZM102.137 167.704C102.137 166.072 101.817 164.68 101.177 163.528C100.537 162.344 99.673 161.448 98.585 160.84C97.497 160.2 96.329 159.88 95.081 159.88C93.833 159.88 92.681 160.184 91.625 160.792C90.569 161.4 89.705 162.296 89.033 163.48C88.393 164.632 88.073 166.008 88.073 167.608C88.073 169.208 88.393 170.616 89.033 171.832C89.705 173.016 90.569 173.928 91.625 174.568C92.713 175.208 93.865 175.528 95.081 175.528C96.329 175.528 97.497 175.224 98.585 174.616C99.673 173.976 100.537 173.08 101.177 171.928C101.817 170.744 102.137 169.336 102.137 167.704ZM113.74 167.608C113.74 164.92 114.268 162.536 115.324 160.456C116.412 158.376 117.868 156.776 119.692 155.656C121.548 154.536 123.612 153.976 125.884 153.976C127.868 153.976 129.596 154.376 131.068 155.176C132.572 155.976 133.772 156.984 134.668 158.2V154.408H141.436V181H134.668V177.112C133.804 178.36 132.604 179.4 131.068 180.232C129.564 181.032 127.82 181.432 125.836 181.432C123.596 181.432 121.548 180.856 119.692 179.704C117.868 178.552 116.412 176.936 115.324 174.856C114.268 172.744 113.74 170.328 113.74 167.608ZM134.668 167.704C134.668 166.072 134.348 164.68 133.708 163.528C133.068 162.344 132.204 161.448 131.116 160.84C130.028 160.2 128.86 159.88 127.612 159.88C126.364 159.88 125.212 160.184 124.156 160.792C123.1 161.4 122.236 162.296 121.564 163.48C120.924 164.632 120.604 166.008 120.604 167.608C120.604 169.208 120.924 170.616 121.564 171.832C122.236 173.016 123.1 173.928 124.156 174.568C125.244 175.208 126.396 175.528 127.612 175.528C128.86 175.528 130.028 175.224 131.116 174.616C132.204 173.976 133.068 173.08 133.708 171.928C134.348 170.744 134.668 169.336 134.668 167.704ZM162.736 154.024C165.904 154.024 168.464 155.032 170.416 157.048C172.368 159.032 173.344 161.816 173.344 165.4V181H166.624V166.312C166.624 164.2 166.096 162.584 165.04 161.464C163.984 160.312 162.544 159.736 160.72 159.736C158.864 159.736 157.392 160.312 156.304 161.464C155.248 162.584 154.72 164.2 154.72 166.312V181H148V154.408H154.72V157.72C155.616 156.568 156.752 155.672 158.128 155.032C159.536 154.36 161.072 154.024 162.736 154.024ZM189.443 167.608C189.443 164.92 189.971 162.536 191.027 160.456C192.115 158.376 193.587 156.776 195.443 155.656C197.299 154.536 199.363 153.976 201.635 153.976C203.363 153.976 205.011 154.36 206.579 155.128C208.147 155.864 209.395 156.856 210.323 158.104V145.48H217.139V181H210.323V177.064C209.491 178.376 208.323 179.432 206.819 180.232C205.315 181.032 203.571 181.432 201.587 181.432C199.347 181.432 197.299 180.856 195.443 179.704C193.587 178.552 192.115 176.936 191.027 174.856C189.971 172.744 189.443 170.328 189.443 167.608ZM210.371 167.704C210.371 166.072 210.051 164.68 209.411 163.528C208.771 162.344 207.907 161.448 206.819 160.84C205.731 160.2 204.563 159.88 203.315 159.88C202.067 159.88 200.915 160.184 199.859 160.792C198.803 161.4 197.939 162.296 197.267 163.48C196.627 164.632 196.307 166.008 196.307 167.608C196.307 169.208 196.627 170.616 197.267 171.832C197.939 173.016 198.803 173.928 199.859 174.568C200.947 175.208 202.099 175.528 203.315 175.528C204.563 175.528 205.731 175.224 206.819 174.616C207.907 173.976 208.771 173.08 209.411 171.928C210.051 170.744 210.371 169.336 210.371 167.704ZM227.111 151.24C225.927 151.24 224.935 150.872 224.135 150.136C223.367 149.368 222.983 148.424 222.983 147.304C222.983 146.184 223.367 145.256 224.135 144.52C224.935 143.752 225.927 143.368 227.111 143.368C228.295 143.368 229.271 143.752 230.039 144.52C230.839 145.256 231.239 146.184 231.239 147.304C231.239 148.424 230.839 149.368 230.039 150.136C229.271 150.872 228.295 151.24 227.111 151.24ZM230.423 154.408V181H223.703V154.408H230.423ZM244.886 159.928V172.792C244.886 173.688 245.094 174.344 245.51 174.76C245.958 175.144 246.694 175.336 247.718 175.336H250.838V181H246.614C240.95 181 238.118 178.248 238.118 172.744V159.928H234.95V154.408H238.118V147.832H244.886V154.408H250.838V159.928H244.886ZM280.775 154.408V181H274.007V177.64C273.143 178.792 272.007 179.704 270.599 180.376C269.223 181.016 267.719 181.336 266.087 181.336C264.007 181.336 262.167 180.904 260.567 180.04C258.967 179.144 257.703 177.848 256.775 176.152C255.879 174.424 255.431 172.376 255.431 170.008V154.408H262.151V169.048C262.151 171.16 262.679 172.792 263.735 173.944C264.791 175.064 266.231 175.624 268.055 175.624C269.911 175.624 271.367 175.064 272.423 173.944C273.479 172.792 274.007 171.16 274.007 169.048V154.408H280.775ZM302.142 154.024C305.31 154.024 307.87 155.032 309.822 157.048C311.774 159.032 312.75 161.816 312.75 165.4V181H306.03V166.312C306.03 164.2 305.502 162.584 304.446 161.464C303.39 160.312 301.95 159.736 300.126 159.736C298.27 159.736 296.798 160.312 295.71 161.464C294.654 162.584 294.126 164.2 294.126 166.312V181H287.406V154.408H294.126V157.72C295.022 156.568 296.158 155.672 297.534 155.032C298.942 154.36 300.478 154.024 302.142 154.024ZM317.412 167.608C317.412 164.92 317.94 162.536 318.996 160.456C320.084 158.376 321.556 156.776 323.412 155.656C325.268 154.536 327.332 153.976 329.604 153.976C331.332 153.976 332.98 154.36 334.548 155.128C336.116 155.864 337.364 156.856 338.292 158.104V145.48H345.108V181H338.292V177.064C337.46 178.376 336.292 179.432 334.788 180.232C333.284 181.032 331.54 181.432 329.556 181.432C327.316 181.432 325.268 180.856 323.412 179.704C321.556 178.552 320.084 176.936 318.996 174.856C317.94 172.744 317.412 170.328 317.412 167.608ZM338.34 167.704C338.34 166.072 338.02 164.68 337.38 163.528C336.74 162.344 335.876 161.448 334.788 160.84C333.7 160.2 332.532 159.88 331.284 159.88C330.036 159.88 328.884 160.184 327.828 160.792C326.772 161.4 325.908 162.296 325.236 163.48C324.596 164.632 324.276 166.008 324.276 167.608C324.276 169.208 324.596 170.616 325.236 171.832C325.908 173.016 326.772 173.928 327.828 174.568C328.916 175.208 330.068 175.528 331.284 175.528C332.532 175.528 333.7 175.224 334.788 174.616C335.876 173.976 336.74 173.08 337.38 171.928C338.02 170.744 338.34 169.336 338.34 167.704ZM349.943 167.608C349.943 164.92 350.471 162.536 351.527 160.456C352.615 158.376 354.071 156.776 355.895 155.656C357.751 154.536 359.815 153.976 362.087 153.976C364.071 153.976 365.799 154.376 367.271 155.176C368.775 155.976 369.975 156.984 370.871 158.2V154.408H377.639V181H370.871V177.112C370.007 178.36 368.807 179.4 367.271 180.232C365.767 181.032 364.023 181.432 362.039 181.432C359.799 181.432 357.751 180.856 355.895 179.704C354.071 178.552 352.615 176.936 351.527 174.856C350.471 172.744 349.943 170.328 349.943 167.608ZM370.871 167.704C370.871 166.072 370.551 164.68 369.911 163.528C369.271 162.344 368.407 161.448 367.319 160.84C366.231 160.2 365.063 159.88 363.815 159.88C362.567 159.88 361.415 160.184 360.359 160.792C359.303 161.4 358.439 162.296 357.767 163.48C357.127 164.632 356.807 166.008 356.807 167.608C356.807 169.208 357.127 170.616 357.767 171.832C358.439 173.016 359.303 173.928 360.359 174.568C361.447 175.208 362.599 175.528 363.815 175.528C365.063 175.528 366.231 175.224 367.319 174.616C368.407 173.976 369.271 173.08 369.911 171.928C370.551 170.744 370.871 169.336 370.871 167.704Z" fill="black"/>
<path d="M337.351 35.5L337.787 35.2544L337.351 35.5ZM312.975 55.4737L312.856 55.9593L312.975 55.4737ZM472 1L466.229 0.815697L468.955 5.9053L472 1ZM259.079 93.4937C259.399 93.4422 259.722 93.3895 260.047 93.3355L259.883 92.349C259.56 92.4027 259.239 92.4551 258.921 92.5063L259.079 93.4937ZM262.027 92.9974C262.67 92.8845 263.321 92.7671 263.981 92.6451L263.799 91.6618C263.142 91.7832 262.494 91.9001 261.854 92.0125L262.027 92.9974ZM265.958 92.2705C266.6 92.1459 267.25 92.0172 267.905 91.8844L267.706 90.9043C267.054 91.0366 266.407 91.1647 265.767 91.2888L265.958 92.2705ZM269.868 91.4779C270.512 91.3417 271.162 91.2017 271.815 91.0579L271.601 90.0812C270.949 90.2244 270.303 90.3639 269.661 90.4995L269.868 91.4779ZM273.768 90.6202C274.412 90.4729 275.06 90.3221 275.711 90.1677L275.481 89.1946C274.832 89.3485 274.186 89.4987 273.545 89.6453L273.768 90.6202ZM277.654 89.6988C278.297 89.5408 278.943 89.3793 279.592 89.2143L279.345 88.2452C278.7 88.4095 278.056 88.5703 277.416 88.7277L277.654 89.6988ZM281.526 88.7137C282.167 88.5449 282.811 88.3727 283.455 88.1971L283.193 87.2322C282.551 87.407 281.91 87.5785 281.271 87.7467L281.526 88.7137ZM285.381 87.6639C286.02 87.4839 286.661 87.3006 287.301 87.1141L287.022 86.154C286.384 86.3397 285.747 86.5221 285.11 86.7013L285.381 87.6639ZM289.218 86.547C289.855 86.3555 290.491 86.1607 291.128 85.9627L290.831 85.0079C290.197 85.2049 289.563 85.3987 288.93 85.5894L289.218 86.547ZM293.034 85.3601C293.668 85.1563 294.301 84.9494 294.933 84.7392L294.617 83.7903C293.988 83.9994 293.358 84.2053 292.728 84.4081L293.034 85.3601ZM296.826 84.0989C297.457 83.8822 298.086 83.6622 298.713 83.439L298.378 82.4968C297.754 82.7188 297.128 82.9376 296.501 83.1533L296.826 84.0989ZM300.592 82.7585C301.219 82.5276 301.843 82.2935 302.465 82.0561L302.108 81.1219C301.49 81.3578 300.869 81.5906 300.247 81.8201L300.592 82.7585ZM304.327 81.3321C304.949 81.0859 305.568 80.8364 306.184 80.5836L305.804 79.6586C305.192 79.9098 304.577 80.1577 303.959 80.4023L304.327 81.3321ZM308.027 79.812C308.643 79.549 309.255 79.2825 309.863 79.0126L309.458 78.0986C308.854 78.3665 308.246 78.6311 307.634 78.8923L308.027 79.812ZM311.683 78.1882C312.293 77.9065 312.897 77.6213 313.496 77.3325L313.062 76.4317C312.468 76.7181 311.868 77.001 311.264 77.2805L311.683 78.1882ZM315.29 76.4487C315.89 76.1462 316.484 75.84 317.072 75.5301L316.605 74.6456C316.023 74.9525 315.435 75.2559 314.84 75.5556L315.29 76.4487ZM318.833 74.5786C319.422 74.2529 320.003 73.9232 320.576 73.5896L320.073 72.7253C319.507 73.0552 318.932 73.3813 318.349 73.7036L318.833 74.5786ZM322.299 72.5597C322.872 72.2078 323.436 71.8517 323.99 71.4914L323.445 70.6529C322.899 71.0084 322.342 71.36 321.776 71.7075L322.299 72.5597ZM325.664 70.3698C326.216 69.9884 326.758 69.6024 327.287 69.2119L326.694 68.4071C326.173 68.7913 325.64 69.1713 325.096 69.5471L325.664 70.3698ZM328.897 67.9825C329.427 67.5627 329.943 67.1378 330.446 66.7079L329.796 65.948C329.303 66.3694 328.796 66.7863 328.276 67.1986L328.897 67.9825ZM331.949 65.3667C332.448 64.9017 332.931 64.4309 333.396 63.9543L332.68 63.2558C332.227 63.7206 331.755 64.1803 331.267 64.6351L331.949 65.3667ZM334.761 62.4812C335.213 61.9663 335.644 61.4449 336.054 60.917L335.264 60.3036C334.867 60.815 334.448 61.321 334.009 61.8216L334.761 62.4812ZM337.245 59.2751C337.626 58.7098 337.982 58.1374 338.313 57.5577L337.444 57.0624C337.126 57.6194 336.783 58.1707 336.416 58.7161L337.245 59.2751ZM339.248 55.7495C339.536 55.1285 339.795 54.4997 340.022 53.8631L339.081 53.5266C338.864 54.1335 338.617 54.7341 338.341 55.3283L339.248 55.7495ZM340.614 51.9135C340.779 51.2528 340.911 50.5843 341.008 49.9081L340.018 49.7663C339.926 50.4079 339.801 51.0428 339.644 51.6708L340.614 51.9135ZM341.192 47.8751C341.217 47.2032 341.208 46.5244 341.164 45.8389L340.166 45.9038C340.208 46.5553 340.217 47.1998 340.192 47.8373L341.192 47.8751ZM340.93 43.8078C340.821 43.1484 340.679 42.4832 340.504 41.8124L339.536 42.0652C339.704 42.707 339.839 43.3422 339.943 43.9707L340.93 43.8078ZM339.912 39.8835C339.69 39.2545 339.439 38.6208 339.158 37.9824L338.243 38.3855C338.514 39.0014 338.756 39.6115 338.969 40.2158L339.912 39.8835ZM338.285 36.1699C338.126 35.8657 337.96 35.5606 337.787 35.2544L336.916 35.7457C337.084 36.0428 337.244 36.3387 337.398 36.6333L338.285 36.1699ZM337.787 35.2544C337.615 34.9498 337.442 34.6502 337.269 34.3555L336.407 34.8634C336.578 35.1525 336.747 35.4466 336.916 35.7457L337.787 35.2544ZM336.215 32.6459C335.848 32.0752 335.476 31.5251 335.101 30.9953L334.285 31.5728C334.651 32.0906 335.015 32.6286 335.375 33.1875L336.215 32.6459ZM333.898 29.3775C333.476 28.8391 333.051 28.3248 332.622 27.8339L331.869 28.4916C332.286 28.9687 332.7 29.4693 333.11 29.994L333.898 29.3775ZM331.258 26.3609C330.772 25.8673 330.283 25.4021 329.791 24.9645L329.127 25.7118C329.602 26.1342 330.075 26.5841 330.545 27.0623L331.258 26.3609ZM328.258 23.6962C327.703 23.2708 327.145 22.8787 326.586 22.5186L326.045 23.3596C326.58 23.7044 327.116 24.0807 327.649 24.4897L328.258 23.6962ZM324.835 21.4985C324.226 21.1796 323.615 20.8971 323.005 20.6495L322.629 21.5762C323.209 21.8115 323.79 22.0804 324.371 22.3845L324.835 21.4985ZM321.082 19.9826C320.416 19.7904 319.753 19.6381 319.092 19.5238L318.922 20.5091C319.546 20.6172 320.174 20.7612 320.804 20.9433L321.082 19.9826ZM317.069 19.2893C316.384 19.2489 315.704 19.2482 315.033 19.2847L315.087 20.2833C315.721 20.2487 316.363 20.2494 317.01 20.2876L317.069 19.2893ZM313.009 19.5094C312.336 19.6224 311.673 19.7722 311.023 19.956L311.295 20.9183C311.911 20.7442 312.538 20.6024 313.175 20.4956L313.009 19.5094ZM309.096 20.6128C308.465 20.8652 307.849 21.1497 307.249 21.4634L307.712 22.3495C308.283 22.0511 308.869 21.7808 309.467 21.5412L309.096 20.6128ZM305.497 22.4916C304.929 22.8625 304.38 23.2602 303.852 23.6817L304.475 24.4635C304.98 24.0613 305.503 23.6821 306.044 23.3286L305.497 22.4916ZM302.325 25.019C301.836 25.4887 301.37 25.98 300.928 26.49L301.684 27.1448C302.106 26.6578 302.551 26.1887 303.018 25.7401L302.325 25.019ZM299.672 28.0825C299.276 28.6346 298.908 29.2031 298.568 29.7853L299.432 30.2887C299.756 29.734 300.107 29.1918 300.484 28.665L299.672 28.0825ZM297.632 31.5899C297.348 32.2103 297.097 32.8421 296.881 33.4821L297.828 33.8017C298.033 33.1953 298.271 32.5957 298.541 32.006L297.632 31.5899ZM296.336 35.4468C296.191 36.1149 296.085 36.7885 296.021 37.4643L297.016 37.5589C297.077 36.924 297.176 36.2898 297.313 35.6594L296.336 35.4468ZM295.957 39.5087C295.98 40.1904 296.048 40.8709 296.164 41.5465L297.149 41.3774C297.041 40.7478 296.978 40.1127 296.956 39.4751L295.957 39.5087ZM296.652 43.5375C296.859 44.181 297.114 44.8162 297.418 45.4396L298.316 45.001C298.033 44.4206 297.796 43.8297 297.604 43.2311L296.652 43.5375ZM298.444 47.2155C298.818 47.7711 299.236 48.3134 299.701 48.8399L300.451 48.1783C300.014 47.6838 299.623 47.1759 299.273 46.6569L298.444 47.2155ZM301.137 50.2835C301.625 50.7198 302.149 51.1418 302.711 51.548L303.297 50.7374C302.762 50.351 302.265 49.9507 301.804 49.5383L301.137 50.2835ZM304.409 52.6566C304.98 52.9938 305.582 53.3168 306.217 53.6246L306.653 52.7248C306.042 52.4285 305.464 52.1183 304.917 51.7955L304.409 52.6566ZM308.029 54.4252C308.638 54.6701 309.272 54.9024 309.933 55.1213L310.248 54.1722C309.606 53.9595 308.991 53.7342 308.402 53.4974L308.029 54.4252ZM311.847 55.6982C312.178 55.7883 312.514 55.8754 312.856 55.9593L313.095 54.9881C312.761 54.9062 312.433 54.8212 312.111 54.7334L311.847 55.6982ZM312.856 55.9593C313.169 56.0361 313.488 56.1082 313.811 56.1756L314.015 55.1966C313.703 55.1315 313.396 55.062 313.095 54.9881L312.856 55.9593ZM315.81 56.5246C316.448 56.6158 317.103 56.6915 317.774 56.752L317.864 55.7561C317.209 55.697 316.571 55.6233 315.951 55.5346L315.81 56.5246ZM319.794 56.887C320.439 56.9158 321.096 56.9323 321.767 56.9368L321.774 55.9368C321.115 55.9324 320.47 55.9162 319.839 55.8879L319.794 56.887ZM323.778 56.9158C324.426 56.8984 325.084 56.8709 325.752 56.8337L325.697 55.8352C325.037 55.872 324.389 55.899 323.751 55.9161L323.778 56.9158ZM327.756 56.6953C328.401 56.6425 329.055 56.5813 329.718 56.5119L329.614 55.5174C328.958 55.586 328.312 55.6465 327.675 55.6986L327.756 56.6953ZM331.719 56.2808C332.36 56.2003 333.007 56.1127 333.662 56.0182L333.519 55.0284C332.87 55.1221 332.229 55.2089 331.595 55.2887L331.719 56.2808ZM335.646 55.7141C336.287 55.6105 336.933 55.5006 337.586 55.3847L337.412 54.4001C336.764 54.5151 336.122 54.6241 335.486 54.727L335.646 55.7141ZM339.542 55.0233C340.187 54.8993 340.839 54.7697 341.495 54.6347L341.294 53.6552C340.641 53.7893 339.994 53.9181 339.353 54.0412L339.542 55.0233ZM343.423 54.2263C344.07 54.0851 344.722 53.939 345.379 53.788L345.155 52.8134C344.501 52.9636 343.853 53.1089 343.209 53.2492L343.423 54.2263ZM347.292 53.3377C347.93 53.1841 348.572 53.0261 349.218 52.8639L348.975 51.894C348.332 52.0554 347.693 52.2126 347.058 52.3655L347.292 53.3377ZM351.151 52.369C351.781 52.2047 352.415 52.0366 353.051 51.8648L352.791 50.8993C352.157 51.0704 351.526 51.2378 350.899 51.4013L351.151 52.369ZM354.971 51.3382C355.604 51.1619 356.24 50.982 356.879 50.7987L356.603 49.8375C355.966 50.0201 355.333 50.1992 354.702 50.3749L354.971 51.3382ZM358.772 50.248C359.406 50.0613 360.043 49.8713 360.682 49.6782L360.393 48.7209C359.756 48.9134 359.122 49.1027 358.49 49.2888L358.772 50.248ZM362.572 49.1005C363.198 48.9068 363.827 48.7103 364.457 48.511L364.156 47.5575C363.527 47.7562 362.901 47.9521 362.276 48.1451L362.572 49.1005ZM366.355 47.9049C366.979 47.7037 367.604 47.5 368.232 47.2938L367.919 46.3438C367.294 46.5495 366.67 46.7526 366.048 46.9532L366.355 47.9049ZM370.108 46.6712C370.735 46.4612 371.364 46.2488 371.994 46.0341L371.672 45.0875C371.043 45.3017 370.416 45.5135 369.79 45.7229L370.108 46.6712ZM373.861 45.3932C374.482 45.1783 375.104 44.9612 375.728 44.742L375.396 43.7986C374.774 44.0172 374.153 44.2338 373.534 44.4482L373.861 45.3932ZM377.602 44.0782C378.22 43.8576 378.84 43.635 379.461 43.4104L379.121 42.4701C378.501 42.6941 377.883 42.9162 377.266 43.1364L377.602 44.0782ZM381.318 42.734C381.939 42.5067 382.56 42.2775 383.182 42.0467L382.833 41.1092C382.213 41.3396 381.593 41.5682 380.974 41.7951L381.318 42.734ZM385.034 41.3547C385.65 41.1233 386.266 40.8902 386.883 40.6556L386.528 39.7209C385.912 39.9551 385.297 40.1876 384.682 40.4186L385.034 41.3547ZM388.735 39.9472C389.351 39.7107 389.966 39.4727 390.582 39.2333L390.219 38.3013C389.605 38.5402 388.99 38.7778 388.377 39.0139L388.735 39.9472ZM392.423 38.5138C393.037 38.2725 393.651 38.03 394.266 37.7862L393.897 36.8567C393.284 37.1001 392.67 37.3422 392.057 37.583L392.423 38.5138ZM396.106 37.0526C396.717 36.8076 397.329 36.5614 397.94 36.314L397.565 35.387C396.955 35.6339 396.344 35.8797 395.734 36.1243L396.106 37.0526ZM399.774 35.5688C400.385 35.3194 400.996 35.0689 401.606 34.8175L401.226 33.8928C400.616 34.1439 400.006 34.394 399.396 34.6429L399.774 35.5688ZM403.435 34.0612C404.044 33.8082 404.653 33.5542 405.261 33.2994L404.875 32.3771C404.268 32.6315 403.66 32.8851 403.051 33.1377L403.435 34.0612ZM407.085 32.5324C407.694 32.2754 408.302 32.0177 408.909 31.7593L408.517 30.8391C407.911 31.0972 407.304 31.3546 406.696 31.6111L407.085 32.5324ZM410.729 30.9818C411.335 30.7219 411.94 30.4614 412.544 30.2003L412.147 29.2824C411.544 29.5431 410.94 29.8033 410.335 30.0627L410.729 30.9818ZM414.363 29.4114C414.968 29.1478 415.573 28.8836 416.177 28.6189L415.775 27.7031C415.172 27.9674 414.568 28.2312 413.964 28.4945L414.363 29.4114ZM417.984 27.8236C418.59 27.5563 419.194 27.2885 419.797 27.0204L419.391 26.1066C418.789 26.3744 418.185 26.6418 417.58 26.9088L417.984 27.8236ZM421.606 26.2134C422.207 25.9442 422.808 25.6746 423.406 25.4049L422.995 24.4931C422.398 24.7626 421.798 25.0318 421.197 25.3007L421.606 26.2134ZM425.213 24.5883C425.816 24.3148 426.417 24.0411 427.017 23.7673L426.601 22.8576C426.003 23.131 425.402 23.4044 424.799 23.6776L425.213 24.5883ZM428.81 22.946C429.412 22.6695 430.012 22.3931 430.61 22.1167L430.19 21.209C429.593 21.4851 428.994 21.7612 428.393 22.0373L428.81 22.946ZM432.41 21.2822C433.007 21.0042 433.603 20.7263 434.196 20.4486L433.772 19.5429C433.18 19.8202 432.585 20.0978 431.988 20.3755L432.41 21.2822ZM435.99 19.6068C436.591 19.3239 437.189 19.0414 437.785 18.7592L437.357 17.8554C436.762 18.1373 436.164 18.4195 435.564 18.7021L435.99 19.6068ZM439.564 17.9139C440.163 17.6284 440.759 17.3435 441.353 17.0591L440.921 16.1573C440.328 16.4414 439.732 16.726 439.134 17.0111L439.564 17.9139ZM443.142 16.199C443.735 15.9129 444.326 15.6275 444.912 15.3429L444.476 14.4431C443.89 14.7274 443.3 15.0125 442.708 15.2982L443.142 16.199ZM446.7 14.4737C447.297 14.1822 447.891 13.8916 448.481 13.602L448.041 12.7043C447.451 12.9935 446.858 13.2838 446.261 13.5749L446.7 14.4737ZM450.24 12.7363C450.841 12.4398 451.437 12.1445 452.029 11.8504L451.585 10.9547C450.993 11.2484 450.397 11.5434 449.797 11.8396L450.24 12.7363ZM453.8 10.9686C454.39 10.6739 454.975 10.3807 455.556 10.0889L455.107 9.19535C454.527 9.48678 453.942 9.7797 453.353 10.074L453.8 10.9686ZM457.341 9.18897C457.931 8.89068 458.515 8.5941 459.095 8.29934L458.641 7.40808C458.063 7.70246 457.479 7.99867 456.89 8.29658L457.341 9.18897ZM460.862 7.39725C461.457 7.09258 462.046 6.79005 462.628 6.48978L462.17 5.60091C461.588 5.90077 461 6.20289 460.406 6.50716L460.862 7.39725ZM464.364 5.59216C464.965 5.2804 465.559 4.97131 466.145 4.66506L465.682 3.77876C465.096 4.08456 464.504 4.39321 463.904 4.70453L464.364 5.59216ZM467.88 3.75497C468.477 3.44086 469.066 3.13003 469.645 2.82264L469.177 1.93916C468.598 2.24605 468.011 2.5564 467.415 2.87003L467.88 3.75497Z" fill="black"/>
</svg>
